<svg width="154" height="135" viewBox="0 0 154 135" fill="none" xmlns="http://www.w3.org/2000/svg">
<path opacity="0.55" d="M0.183595 31C0.183595 51 14.1836 63 31.6836 63C36.6836 63 40.1836 61.5 41.6836 60.5C41.1836 83 25.6836 106 3.1836 111V135C32.1836 131.5 72.1836 106 72.1836 44C72.1836 15 54.1836 -2.71797e-05 34.1836 -2.71797e-05C14.6836 -2.71797e-05 0.183595 14.5 0.183595 31ZM82 31C82 51 96 63 113.5 63C118.5 63 122 61.5 123.5 60.5C123 83 107.5 106 85 111V135C114 131.5 154 106 154 44C154 15 136 -2.71797e-05 116 -2.71797e-05C96.5 -2.71797e-05 82 14.5 82 31Z" fill="#EEEEEE"/>
</svg>
