<svg xmlns="http://www.w3.org/2000/svg" width="24" height="24" viewBox="0 0 24 24">
    <path fill="#205ED8" fill-rule="evenodd" d="M0 15.347v-8.46h4.344c1.676 0 2.616.826 2.616 2.058v.28c0 1.016-.559 1.562-1.473 1.816v.038c1.003.254 1.587.877 1.587 1.83v.317c0 1.32-1.003 2.12-2.59 2.12H0zm4.052-6.973h-2.16v2.045h2.122c.673 0 1.08-.343 1.08-.915v-.292c0-.52-.395-.838-1.042-.838zm-.038 3.378H1.892v2.109H4.09c.673 0 1.054-.33 1.054-.89v-.291c0-.572-.407-.928-1.13-.928zm4.121 3.595v-8.79h1.83v8.79h-1.83zm5.824-6.338c1.867 0 3.125 1.092 3.125 3.06v.458c0 1.969-1.283 3.023-3.137 3.023-1.842 0-3.15-1.054-3.15-3.023v-.457c0-.978.292-1.74.889-2.274.584-.52 1.346-.787 2.273-.787zm-.012 1.41c-.826 0-1.347.546-1.347 1.422v.877c0 .876.534 1.41 1.347 1.41s1.333-.534 1.333-1.41v-.877c0-.876-.508-1.422-1.333-1.422zm9.977 5.296c0 1.08-1.169 1.727-3.353 1.727-2.274 0-3.264-.457-3.264-1.282 0-.508.444-.851 1.371-1.004v-.025c-.673-.216-1.067-.546-1.067-1.016 0-.496.496-.839 1.207-1.093-.724-.317-1.13-.927-1.13-1.778v-.05c0-1.372 1.168-2.096 2.845-2.096.406 0 .8.063 1.117.165.724-.216.902-.584.915-1.156h1.27c.101.216.165.445.165.61 0 .648-.533.889-1.511 1.041.558.369.889.775.889 1.55 0 1.359-1.118 2.045-2.845 2.045-.369 0-.699-.038-.991-.09-.394.14-.495.293-.495.407 0 .203.33.356 1.486.356h.406c1.143 0 1.93.152 2.35.457.419.318.635.724.635 1.232zm-3.379-3.493c.724 0 1.08-.33 1.08-.902v-.165c0-.597-.356-.927-1.08-.927-.749 0-1.092.318-1.092.915v.152c0 .61.343.927 1.092.927zm.051 4.268c1.169 0 1.778-.165 1.778-.52 0-.318-.533-.47-1.714-.47h-.216c-1.03 0-1.6.19-1.6.507 0 .318.546.483 1.752.483z"/>
</svg>
