<svg xmlns="http://www.w3.org/2000/svg" width="256" height="113" viewBox="0 0 256 113">
    <g fill="none" fill-rule="nonzero">
        <path fill="#DF1E25" d="M16 99.815l12.593 12.47a2 2 0 0 0 2.814 0L44 99.815l12.593 12.47a2 2 0 0 0 2.814 0L72 99.815l12.593 12.47a2 2 0 0 0 2.814 0L100 99.815l12.593 12.47a2 2 0 0 0 2.814 0L128 99.815l12.593 12.47a2 2 0 0 0 2.814 0L156 99.815l12.593 12.47a2 2 0 0 0 2.814 0L184 99.815l12.593 12.47a2 2 0 0 0 2.814 0L212 99.815l12.593 12.47a2 2 0 0 0 2.814 0L240 99.815l12.593 12.47a2 2 0 1 0 2.814-2.842l-14-13.864a2 2 0 0 0-2.814 0L226 108.049l-12.593-12.47a2 2 0 0 0-2.814 0L198 108.049l-12.593-12.47a2 2 0 0 0-2.814 0L170 108.049l-12.593-12.47a2 2 0 0 0-2.814 0L142 108.049l-12.593-12.47a2 2 0 0 0-2.814 0L114 108.049l-12.593-12.47a2 2 0 0 0-2.814 0L86 108.049 73.407 95.58a2 2 0 0 0-2.814 0L58 108.049 45.407 95.58a2 2 0 0 0-2.814 0L30 108.049 17.407 95.58a2 2 0 0 0-2.814 0l-14 13.864a2 2 0 0 0 2.814 2.842L16 99.815z" opacity=".5"/>
        <path fill="#205ED8" d="M16 67.815l12.593 12.47a2 2 0 0 0 2.814 0L44 67.815l12.593 12.47a2 2 0 0 0 2.814 0L72 67.815l12.593 12.47a2 2 0 0 0 2.814 0L100 67.815l12.593 12.47a2 2 0 0 0 2.814 0L128 67.815l12.593 12.47a2 2 0 0 0 2.814 0L156 67.815l12.593 12.47a2 2 0 0 0 2.814 0L184 67.815l12.593 12.47a2 2 0 0 0 2.814 0L212 67.815l12.593 12.47a2 2 0 0 0 2.814 0L240 67.815l12.593 12.47a2 2 0 1 0 2.814-2.842l-14-13.864a2 2 0 0 0-2.814 0L226 76.049l-12.593-12.47a2 2 0 0 0-2.814 0L198 76.049l-12.593-12.47a2 2 0 0 0-2.814 0L170 76.049l-12.593-12.47a2 2 0 0 0-2.814 0L142 76.049l-12.593-12.47a2 2 0 0 0-2.814 0L114 76.049l-12.593-12.47a2 2 0 0 0-2.814 0L86 76.049 73.407 63.58a2 2 0 0 0-2.814 0L58 76.049 45.407 63.58a2 2 0 0 0-2.814 0L30 76.049 17.407 63.58a2 2 0 0 0-2.814 0l-14 13.864a2 2 0 0 0 2.814 2.842L16 67.815z"/>
        <path fill="#DF1E25" d="M16 36.815l12.593 12.47a2 2 0 0 0 2.814 0L44 36.815l12.593 12.47a2 2 0 0 0 2.814 0L72 36.815l12.593 12.47a2 2 0 0 0 2.814 0L100 36.815l12.593 12.47a2 2 0 0 0 2.814 0L128 36.815l12.593 12.47a2 2 0 0 0 2.814 0L156 36.815l12.593 12.47a2 2 0 0 0 2.814 0L184 36.815l12.593 12.47a2 2 0 0 0 2.814 0L212 36.815l12.593 12.47a2 2 0 0 0 2.814 0L240 36.815l12.593 12.47a2 2 0 1 0 2.814-2.842l-14-13.864a2 2 0 0 0-2.814 0L226 45.049l-12.593-12.47a2 2 0 0 0-2.814 0L198 45.049l-12.593-12.47a2 2 0 0 0-2.814 0L170 45.049l-12.593-12.47a2 2 0 0 0-2.814 0L142 45.049l-12.593-12.47a2 2 0 0 0-2.814 0L114 45.049l-12.593-12.47a2 2 0 0 0-2.814 0L86 45.049 73.407 32.58a2 2 0 0 0-2.814 0L58 45.049 45.407 32.58a2 2 0 0 0-2.814 0L30 45.049 17.407 32.58a2 2 0 0 0-2.814 0l-14 13.864a2 2 0 0 0 2.814 2.842L16 36.815z" opacity=".5"/>
        <path fill="#205ED8" d="M16 4.815l12.593 12.47a2 2 0 0 0 2.814 0L44 4.815l12.593 12.47a2 2 0 0 0 2.814 0L72 4.815l12.593 12.47a2 2 0 0 0 2.814 0L100 4.815l12.593 12.47a2 2 0 0 0 2.814 0L128 4.815l12.593 12.47a2 2 0 0 0 2.814 0L156 4.815l12.593 12.47a2 2 0 0 0 2.814 0L184 4.815l12.593 12.47a2 2 0 0 0 2.814 0L212 4.815l12.593 12.47a2 2 0 0 0 2.814 0L240 4.815l12.593 12.47a2 2 0 1 0 2.814-2.842l-14-13.864a2 2 0 0 0-2.814 0L226 13.049 213.407.58a2 2 0 0 0-2.814 0L198 13.049 185.407.58a2 2 0 0 0-2.814 0L170 13.049 157.407.58a2 2 0 0 0-2.814 0L142 13.049 129.407.58a2 2 0 0 0-2.814 0L114 13.049 101.407.58a2 2 0 0 0-2.814 0L86 13.049 73.407.58a2 2 0 0 0-2.814 0L58 13.049 45.407.58a2 2 0 0 0-2.814 0L30 13.049 17.407.58a2 2 0 0 0-2.814 0l-14 13.864a2 2 0 0 0 2.814 2.842L16 4.815z"/>
    </g>
</svg>
