<svg width="293" height="62" viewBox="0 0 293 62" fill="none" xmlns="http://www.w3.org/2000/svg">
<mask id="path-1-inside-1" fill="white">
<path fill-rule="evenodd" clip-rule="evenodd" d="M8 0C3.58172 0 0 3.58172 0 8V50.5165C0 54.9347 3.58172 58.5165 8 58.5165H139.979L143.903 61.4232C144.791 62.0807 146.23 62.0807 147.117 61.4232L151.042 58.5165H285C289.418 58.5165 293 54.9347 293 50.5165V8C293 3.58172 289.418 0 285 0H8Z"/>
</mask>
<path fill-rule="evenodd" clip-rule="evenodd" d="M8 0C3.58172 0 0 3.58172 0 8V50.5165C0 54.9347 3.58172 58.5165 8 58.5165H139.979L143.903 61.4232C144.791 62.0807 146.23 62.0807 147.117 61.4232L151.042 58.5165H285C289.418 58.5165 293 54.9347 293 50.5165V8C293 3.58172 289.418 0 285 0H8Z" fill="white"/>
<path d="M139.979 58.5165L140.574 57.7129L140.309 57.5165H139.979V58.5165ZM143.903 61.4232L144.498 60.6196L144.498 60.6196L143.903 61.4232ZM147.117 61.4232L146.522 60.6196L146.522 60.6196L147.117 61.4232ZM151.042 58.5165V57.5165H150.712L150.446 57.7129L151.042 58.5165ZM1 8C1 4.134 4.13401 1 8 1V-1C3.02944 -1 -1 3.02943 -1 8H1ZM1 50.5165V8H-1V50.5165H1ZM8 57.5165C4.13401 57.5165 1 54.3825 1 50.5165H-1C-1 55.487 3.02944 59.5165 8 59.5165V57.5165ZM139.979 57.5165H8V59.5165H139.979V57.5165ZM144.498 60.6196L140.574 57.7129L139.384 59.32L143.308 62.2268L144.498 60.6196ZM146.522 60.6196C146.28 60.7992 145.917 60.9163 145.51 60.9163C145.104 60.9163 144.741 60.7992 144.498 60.6196L143.308 62.2268C143.953 62.7047 144.754 62.9163 145.51 62.9163C146.267 62.9163 147.067 62.7047 147.713 62.2268L146.522 60.6196ZM150.446 57.7129L146.522 60.6196L147.713 62.2268L151.637 59.32L150.446 57.7129ZM285 57.5165H151.042V59.5165H285V57.5165ZM292 50.5165C292 54.3825 288.866 57.5165 285 57.5165V59.5165C289.971 59.5165 294 55.487 294 50.5165H292ZM292 8V50.5165H294V8H292ZM285 1C288.866 1 292 4.13401 292 8H294C294 3.02944 289.971 -1 285 -1V1ZM8 1H285V-1H8V1Z" fill="#A6A6A6" mask="url(#path-1-inside-1)"/>
</svg>
