<svg width="113" height="42" viewBox="0 0 113 42" fill="none" xmlns="http://www.w3.org/2000/svg">
<mask id="path-1-inside-1" fill="white">
<path fill-rule="evenodd" clip-rule="evenodd" d="M8 0C3.58172 0 0 3.58172 0 8V29C0 33.4183 3.58173 37 8 37H49.9789L54.096 41.1172C54.8771 41.8982 56.1434 41.8982 56.9245 41.1172L61.0416 37H105C109.418 37 113 33.4183 113 29V8C113 3.58172 109.418 0 105 0H8Z"/>
</mask>
<path fill-rule="evenodd" clip-rule="evenodd" d="M8 0C3.58172 0 0 3.58172 0 8V29C0 33.4183 3.58173 37 8 37H49.9789L54.096 41.1172C54.8771 41.8982 56.1434 41.8982 56.9245 41.1172L61.0416 37H105C109.418 37 113 33.4183 113 29V8C113 3.58172 109.418 0 105 0H8Z" fill="white"/>
<path d="M49.9789 37L50.686 36.2929L50.3931 36H49.9789V37ZM61.0416 37V36H60.6274L60.3345 36.2929L61.0416 37ZM1 8C1 4.13401 4.13401 1 8 1V-1C3.02944 -1 -1 3.02944 -1 8H1ZM1 29V8H-1V29H1ZM8 36C4.13401 36 1 32.866 1 29H-1C-1 33.9706 3.02944 38 8 38V36ZM49.9789 36H8V38H49.9789V36ZM54.8031 40.41L50.686 36.2929L49.2718 37.7071L53.3889 41.8243L54.8031 40.41ZM56.2174 40.41C55.8268 40.8006 55.1937 40.8006 54.8031 40.41L53.3889 41.8243C54.5605 42.9958 56.46 42.9958 57.6316 41.8243L56.2174 40.41ZM60.3345 36.2929L56.2174 40.41L57.6316 41.8243L61.7487 37.7071L60.3345 36.2929ZM105 36H61.0416V38H105V36ZM112 29C112 32.866 108.866 36 105 36V38C109.971 38 114 33.9706 114 29H112ZM112 8V29H114V8H112ZM105 1C108.866 1 112 4.13401 112 8H114C114 3.02944 109.971 -1 105 -1V1ZM8 1H105V-1H8V1Z" fill="#A6A6A6" mask="url(#path-1-inside-1)"/>
</svg>
