<svg width="129" height="147" viewBox="0 0 129 147" fill="none" xmlns="http://www.w3.org/2000/svg">
<g opacity="0.15">
<circle cx="126.776" cy="20.0173" r="2.22413" transform="rotate(90 126.776 20.0173)" fill="#325ED0"/>
<circle cx="126.776" cy="91.1895" r="2.22413" transform="rotate(90 126.776 91.1895)" fill="#325ED0"/>
<circle cx="126.776" cy="55.6033" r="2.22413" transform="rotate(90 126.776 55.6033)" fill="#325ED0"/>
<circle cx="126.776" cy="126.776" r="2.22413" transform="rotate(90 126.776 126.776)" fill="#325ED0"/>
<circle cx="126.776" cy="2.22413" r="2.22413" transform="rotate(90 126.776 2.22413)" fill="#325ED0"/>
<circle cx="126.776" cy="144.569" r="2.22413" transform="rotate(90 126.776 144.569)" fill="#325ED0"/>
<circle cx="126.776" cy="73.3965" r="2.22413" transform="rotate(90 126.776 73.3965)" fill="#325ED0"/>
<circle cx="126.776" cy="37.8103" r="2.22413" transform="rotate(90 126.776 37.8103)" fill="#325ED0"/>
<circle cx="126.776" cy="108.983" r="2.22413" transform="rotate(90 126.776 108.983)" fill="#325ED0"/>
<circle cx="108.983" cy="20.0173" r="2.22413" transform="rotate(90 108.983 20.0173)" fill="#325ED0"/>
<circle cx="108.983" cy="91.1895" r="2.22413" transform="rotate(90 108.983 91.1895)" fill="#325ED0"/>
<circle cx="108.983" cy="55.6033" r="2.22413" transform="rotate(90 108.983 55.6033)" fill="#325ED0"/>
<circle cx="108.983" cy="126.776" r="2.22413" transform="rotate(90 108.983 126.776)" fill="#325ED0"/>
<circle cx="108.983" cy="2.22413" r="2.22413" transform="rotate(90 108.983 2.22413)" fill="#325ED0"/>
<circle cx="108.983" cy="144.569" r="2.22413" transform="rotate(90 108.983 144.569)" fill="#325ED0"/>
<circle cx="108.983" cy="73.3965" r="2.22413" transform="rotate(90 108.983 73.3965)" fill="#325ED0"/>
<circle cx="108.983" cy="37.8103" r="2.22413" transform="rotate(90 108.983 37.8103)" fill="#325ED0"/>
<circle cx="108.983" cy="108.983" r="2.22413" transform="rotate(90 108.983 108.983)" fill="#325ED0"/>
<circle cx="91.1894" cy="20.0173" r="2.22413" transform="rotate(90 91.1894 20.0173)" fill="#325ED0"/>
<circle cx="91.1894" cy="91.1895" r="2.22413" transform="rotate(90 91.1894 91.1895)" fill="#325ED0"/>
<circle cx="91.1894" cy="55.6033" r="2.22413" transform="rotate(90 91.1894 55.6033)" fill="#325ED0"/>
<circle cx="91.1894" cy="126.776" r="2.22413" transform="rotate(90 91.1894 126.776)" fill="#325ED0"/>
<circle cx="91.1894" cy="2.22413" r="2.22413" transform="rotate(90 91.1894 2.22413)" fill="#325ED0"/>
<circle cx="91.1894" cy="144.569" r="2.22413" transform="rotate(90 91.1894 144.569)" fill="#325ED0"/>
<circle cx="91.1894" cy="73.3965" r="2.22413" transform="rotate(90 91.1894 73.3965)" fill="#325ED0"/>
<circle cx="91.1894" cy="37.8103" r="2.22413" transform="rotate(90 91.1894 37.8103)" fill="#325ED0"/>
<circle cx="91.1894" cy="108.983" r="2.22413" transform="rotate(90 91.1894 108.983)" fill="#325ED0"/>
<circle cx="73.3962" cy="20.0173" r="2.22413" transform="rotate(90 73.3962 20.0173)" fill="#325ED0"/>
<circle cx="73.3962" cy="91.1895" r="2.22413" transform="rotate(90 73.3962 91.1895)" fill="#325ED0"/>
<circle cx="73.3962" cy="55.6033" r="2.22413" transform="rotate(90 73.3962 55.6033)" fill="#325ED0"/>
<circle cx="73.3962" cy="126.776" r="2.22413" transform="rotate(90 73.3962 126.776)" fill="#325ED0"/>
<circle cx="73.3962" cy="2.22413" r="2.22413" transform="rotate(90 73.3962 2.22413)" fill="#325ED0"/>
<circle cx="73.3962" cy="144.569" r="2.22413" transform="rotate(90 73.3962 144.569)" fill="#325ED0"/>
<circle cx="73.3962" cy="73.3965" r="2.22413" transform="rotate(90 73.3962 73.3965)" fill="#325ED0"/>
<circle cx="73.3962" cy="37.8103" r="2.22413" transform="rotate(90 73.3962 37.8103)" fill="#325ED0"/>
<circle cx="73.3962" cy="108.983" r="2.22413" transform="rotate(90 73.3962 108.983)" fill="#325ED0"/>
<circle cx="55.6037" cy="20.0173" r="2.22413" transform="rotate(90 55.6037 20.0173)" fill="#325ED0"/>
<circle cx="55.6037" cy="91.1895" r="2.22413" transform="rotate(90 55.6037 91.1895)" fill="#325ED0"/>
<circle cx="55.6037" cy="55.6033" r="2.22413" transform="rotate(90 55.6037 55.6033)" fill="#325ED0"/>
<circle cx="55.6037" cy="126.776" r="2.22413" transform="rotate(90 55.6037 126.776)" fill="#325ED0"/>
<circle cx="55.6037" cy="2.22413" r="2.22413" transform="rotate(90 55.6037 2.22413)" fill="#325ED0"/>
<circle cx="55.6037" cy="144.569" r="2.22413" transform="rotate(90 55.6037 144.569)" fill="#325ED0"/>
<circle cx="55.6037" cy="73.3965" r="2.22413" transform="rotate(90 55.6037 73.3965)" fill="#325ED0"/>
<circle cx="55.6037" cy="37.8103" r="2.22413" transform="rotate(90 55.6037 37.8103)" fill="#325ED0"/>
<circle cx="55.6037" cy="108.983" r="2.22413" transform="rotate(90 55.6037 108.983)" fill="#325ED0"/>
<circle cx="37.8105" cy="20.0173" r="2.22413" transform="rotate(90 37.8105 20.0173)" fill="#325ED0"/>
<circle cx="37.8105" cy="91.1895" r="2.22413" transform="rotate(90 37.8105 91.1895)" fill="#325ED0"/>
<circle cx="37.8105" cy="55.6033" r="2.22413" transform="rotate(90 37.8105 55.6033)" fill="#325ED0"/>
<circle cx="37.8105" cy="126.776" r="2.22413" transform="rotate(90 37.8105 126.776)" fill="#325ED0"/>
<circle cx="37.8105" cy="2.22413" r="2.22413" transform="rotate(90 37.8105 2.22413)" fill="#325ED0"/>
<circle cx="37.8105" cy="144.569" r="2.22413" transform="rotate(90 37.8105 144.569)" fill="#325ED0"/>
<circle cx="37.8105" cy="73.3965" r="2.22413" transform="rotate(90 37.8105 73.3965)" fill="#325ED0"/>
<circle cx="37.8105" cy="37.8103" r="2.22413" transform="rotate(90 37.8105 37.8103)" fill="#325ED0"/>
<circle cx="37.8105" cy="108.983" r="2.22413" transform="rotate(90 37.8105 108.983)" fill="#325ED0"/>
<circle cx="20.0173" cy="20.0173" r="2.22413" transform="rotate(90 20.0173 20.0173)" fill="#325ED0"/>
<circle cx="20.0173" cy="91.1895" r="2.22413" transform="rotate(90 20.0173 91.1895)" fill="#325ED0"/>
<circle cx="20.0173" cy="55.6033" r="2.22413" transform="rotate(90 20.0173 55.6033)" fill="#325ED0"/>
<circle cx="20.0173" cy="126.776" r="2.22413" transform="rotate(90 20.0173 126.776)" fill="#325ED0"/>
<circle cx="20.0173" cy="2.22413" r="2.22413" transform="rotate(90 20.0173 2.22413)" fill="#325ED0"/>
<circle cx="20.0173" cy="144.569" r="2.22413" transform="rotate(90 20.0173 144.569)" fill="#325ED0"/>
<circle cx="20.0173" cy="73.3965" r="2.22413" transform="rotate(90 20.0173 73.3965)" fill="#325ED0"/>
<circle cx="20.0173" cy="37.8103" r="2.22413" transform="rotate(90 20.0173 37.8103)" fill="#325ED0"/>
<circle cx="20.0173" cy="108.983" r="2.22413" transform="rotate(90 20.0173 108.983)" fill="#325ED0"/>
<circle cx="2.22411" cy="20.0173" r="2.22413" transform="rotate(90 2.22411 20.0173)" fill="#325ED0"/>
<circle cx="2.22411" cy="91.1895" r="2.22413" transform="rotate(90 2.22411 91.1895)" fill="#325ED0"/>
<circle cx="2.22411" cy="55.6033" r="2.22413" transform="rotate(90 2.22411 55.6033)" fill="#325ED0"/>
<circle cx="2.22411" cy="126.776" r="2.22413" transform="rotate(90 2.22411 126.776)" fill="#325ED0"/>
<circle cx="2.22411" cy="2.22413" r="2.22413" transform="rotate(90 2.22411 2.22413)" fill="#325ED0"/>
<circle cx="2.22411" cy="144.569" r="2.22413" transform="rotate(90 2.22411 144.569)" fill="#325ED0"/>
<circle cx="2.22411" cy="73.3965" r="2.22413" transform="rotate(90 2.22411 73.3965)" fill="#325ED0"/>
<circle cx="2.22411" cy="37.8103" r="2.22413" transform="rotate(90 2.22411 37.8103)" fill="#325ED0"/>
<circle cx="2.22411" cy="108.983" r="2.22413" transform="rotate(90 2.22411 108.983)" fill="#325ED0"/>
</g>
</svg>
