<svg width="293" height="84" viewBox="0 0 293 84" fill="none" xmlns="http://www.w3.org/2000/svg">
<mask id="path-1-inside-1" fill="white">
<path fill-rule="evenodd" clip-rule="evenodd" d="M8 0C3.58172 0 0 3.58172 0 8V71C0 75.4183 3.58172 79 8 79H139.979L144.096 83.1172C144.877 83.8982 146.143 83.8982 146.924 83.1172L151.042 79H285C289.418 79 293 75.4183 293 71V8C293 3.58172 289.418 0 285 0H8Z"/>
</mask>
<path fill-rule="evenodd" clip-rule="evenodd" d="M8 0C3.58172 0 0 3.58172 0 8V71C0 75.4183 3.58172 79 8 79H139.979L144.096 83.1172C144.877 83.8982 146.143 83.8982 146.924 83.1172L151.042 79H285C289.418 79 293 75.4183 293 71V8C293 3.58172 289.418 0 285 0H8Z" fill="white"/>
<path d="M139.979 79L140.686 78.2929L140.393 78H139.979V79ZM151.042 79V78H150.627L150.335 78.2929L151.042 79ZM1 8C1 4.13401 4.13401 1 8 1V-1C3.02944 -1 -1 3.02944 -1 8H1ZM1 71V8H-1V71H1ZM8 78C4.13401 78 1 74.866 1 71H-1C-1 75.9706 3.02944 80 8 80V78ZM139.979 78H8V80H139.979V78ZM144.803 82.4101L140.686 78.2929L139.272 79.7071L143.389 83.8243L144.803 82.4101ZM146.217 82.4101C145.827 82.8006 145.194 82.8006 144.803 82.4101L143.389 83.8243C144.561 84.9958 146.46 84.9958 147.632 83.8243L146.217 82.4101ZM150.335 78.2929L146.217 82.4101L147.632 83.8243L151.749 79.7071L150.335 78.2929ZM285 78H151.042V80H285V78ZM292 71C292 74.866 288.866 78 285 78V80C289.971 80 294 75.9706 294 71H292ZM292 8V71H294V8H292ZM285 1C288.866 1 292 4.13401 292 8H294C294 3.02944 289.971 -1 285 -1V1ZM8 1H285V-1H8V1Z" fill="#A6A6A6" mask="url(#path-1-inside-1)"/>
</svg>
