<svg xmlns="http://www.w3.org/2000/svg" xmlns:xlink="http://www.w3.org/1999/xlink" width="349" height="87" viewBox="0 0 349 87">
  <defs>
    <polygon id="square-logo-a" points="0 95.263 360 95.263 360 0 0 0"/>
  </defs>
  <g fill="none" fill-rule="evenodd" transform="matrix(1 0 0 -1 -6 92.263)">
    <mask id="square-logo-b" fill="#fff">
      <use xlink:href="#square-logo-a"/>
    </mask>
    <g mask="url(#square-logo-b)">
      <g transform="translate(5 5)">
        <path fill="#242628" fill-rule="nonzero" d="M71.25,86.25 L14.4875,86.25 C6.68375,86.25 0.295,79.86375 0.295,72.0575 L0.295,15.295 C0.295,7.4925 6.68375,1.1075 14.4875,1.1075 L71.25,1.1075 C79.05375,1.1075 85.4425,7.4925 85.4425,15.295 L85.4425,72.0575 C85.4425,79.86375 79.05375,86.25 71.25,86.25 Z M69.96,21.09625 C69.96,18.61625 67.92875,16.59125 65.44625,16.59125 L20.2875,16.59125 C17.80625,16.59125 15.775,18.61625 15.775,21.09625 L15.775,66.25375 C15.775,68.735 17.80625,70.76625 20.2875,70.76625 L65.44625,70.76625 C67.92875,70.76625 69.96,68.735 69.96,66.25375 L69.96,21.09625 Z M54.4825,34.64875 C54.4825,33.225 53.32125,32.0675 51.905,32.0675 L33.845,32.0675 C32.425,32.0675 31.2675,33.225 31.2675,34.64875 L31.2675,52.7075 C31.2675,54.12625 32.425,55.28625 33.845,55.28625 L51.905,55.28625 C53.32125,55.28625 54.4825,54.12625 54.4825,52.7075 L54.4825,34.64875 Z" transform="translate(.788 .107)"/>
        <path fill="#242628" fill-rule="nonzero" d="M18.75,0 C13.70125,0 8.84875,1.945 5.43,5.36 C2.37875,8.40375 0.6875,12.36 0.6875,16.4975 L5.80125,16.4975 C5.80125,13.72625 6.94875,11.05375 9.04125,8.97125 C11.505,6.51875 15.0475,5.10625 18.75375,5.10625 L18.79625,5.10625 C25.93125,5.10625 31.7275,10.09625 31.7275,16.22875 C31.72375,20.83 29.17875,24.48125 16.79875,27.3475 C11.76,28.51375 8.36375,30.07375 6.1,32.255 C3.69375,34.58875 2.515,37.695 2.515,41.74875 C2.515,49.755 9.6925,56.2725 18.51625,56.2725 C22.74625,56.2725 26.73125,54.8175 29.745,52.17375 C32.8525,49.445 34.57,45.7625 34.57,41.8075 L29.45625,41.8075 C29.45625,46.96875 24.5525,51.1625 18.51625,51.1625 C12.61,51.1625 7.62375,46.85 7.62375,41.74875 C7.62375,37.085 9.225,34.345 17.955,32.32375 C27.2775,30.17 36.81875,26.5675 36.8425,16.2325 C36.8425,11.83375 34.935,7.7225 31.4725,4.655 C28.08,1.65 23.57875,0 18.8,0 L18.75,0 Z" transform="translate(106.888 15.828)"/>
        <path fill="#242628" fill-rule="nonzero" d="M36.25,0 L36.25,22.38125 L36.10625,22.38125 C32.79,17.30125 27.075,14.68875 21.0675,14.68875 C9.4925,14.68875 0.3075,23.38125 0.3075,35.02625 C0.3075,46.6075 9.70875,55.22125 21.0675,55.22125 C27.075,55.22125 32.79,52.6075 36.10625,47.4525 L36.25,47.4525 L36.25,54.23375 L41.195,54.23375 L41.195,0 L36.25,0 Z M21.0675,50.77125 C11.88625,50.77125 5.25875,43.925 5.25875,34.815 C5.25875,25.77375 12.03125,19.1375 21.0675,19.1375 C29.82875,19.1375 36.535,26.27375 36.535,34.89 C36.535,43.5025 29.82875,50.77125 21.0675,50.77125 Z" transform="translate(149.592 1.29)"/>
        <path fill="#242628" fill-rule="nonzero" d="M36.25,1.25 L36.25,8.02625 L36.10625,8.02625 C32.71375,2.94875 27.06875,0.33625 21.065,0.33625 C9.4925,0.33625 0.3075,9.01875 0.3075,20.6675 C0.3075,32.2475 9.69625,40.86625 21.065,40.86625 C27.14125,40.86625 32.78875,38.31875 36.10625,33.09625 L36.25,33.09625 L36.25,39.8725 L41.18625,39.8725 L41.18625,1.25 L36.25,1.25 Z M21.065,36.4125 C11.8925,36.4125 5.255,29.56625 5.255,20.455 C5.255,11.41875 12.0325,4.7775 21.065,4.7775 C29.82125,4.7775 36.52625,11.915 36.52625,20.53 C36.52625,29.1425 29.82125,36.4125 21.065,36.4125 Z" transform="translate(240.65 15.649)"/>
        <path fill="#242628" fill-rule="nonzero" d="M5,23.75 L5,1.15125 L0.05125,1.15125 L0.05125,39.78125 L5,39.78125 L5,34.2025 L5.13125,34.2025 C7.25625,39.145 10.99625,40.4175 16.01,40.77 L16.01,35.53875 C9.2325,34.97625 5,30.67125 5,23.75" transform="translate(291.65 15.744)"/>
        <path fill="#242628" fill-rule="nonzero" d="M41.25,18.75 L6.0875,18.75 C6.4425,11.125 13.50875,4.76875 21.065,4.76875 C26.99375,4.76875 32.78625,8.16125 34.905,13.88 L40.1225,13.88 C37.30625,5.83375 29.68125,0.3275 21.1325,0.3275 C9.97875,0.3275 1.01125,9.4325 1.01125,20.52125 C1.01125,31.5325 9.97875,40.8575 21.065,40.8575 C32.36625,40.8575 41.33375,31.32125 41.33375,20.16125 C41.33375,19.67375 41.25,19.24875 41.25,18.75 M21.1325,36.40625 C13.43125,36.40625 7.29125,30.7575 6.0875,23.20125 L36.24125,23.20125 C34.97,30.7575 28.90125,36.40625 21.1325,36.40625" transform="translate(308.655 15.658)"/>
        <path fill="#242628" fill-rule="nonzero" d="M30,1.25 L30,7.285 L29.86,7.285 C27.5875,2.52625 22.55125,0.32625 17.44125,0.32625 C12.4025,0.32625 7.29625,2.09875 4.1,6.14125 C1.3375,9.62 0.7,14.30375 0.7,18.6275 L0.7,40.05625 L5.66375,40.05625 L5.66375,18.7025 C5.66375,10.685 8.57,4.7925 17.44125,4.7925 C20.70125,4.7925 23.25625,5.65 25.67125,7.92 C29.08,11.17625 29.7125,15.01625 29.7125,19.55125 L29.7125,40.05625 L34.6825,40.05625 L34.6825,1.25 L30,1.25 Z" transform="translate(199.142 15.599)"/>
      </g>
    </g>
  </g>
</svg>
