<svg xmlns="http://www.w3.org/2000/svg" width="188" height="95" viewBox="0 0 188 95">
  <g fill="none" fill-rule="evenodd">
    <path fill="#292D78" fill-rule="nonzero" d="M1.382,63.816 L25.152,63.816 C31.49,63.816 37.334,58.046 37.334,51.282 C37.334,41.734 26.637,37.357 20.695,32.383 C19.605,31.488 19.506,30.692 21.685,30.692 L35.947,30.692 L35.947,25.421 L14.059,25.421 C11.385,25.421 10.296,27.111 10.296,28.405 C10.296,31.986 16.634,35.566 20.695,38.053 C25.053,40.639 31.391,46.11 31.391,51.083 C31.391,55.46 27.43,58.345 23.765,58.345 L1.382,58.345 L1.382,63.816 Z M35.947,15.672 L35.947,21.143 L13.564,21.143 C9.998,21.143 5.938,24.028 5.938,28.405 C5.938,33.477 11.583,37.257 15.941,39.844 C20.002,42.33 27.132,48.298 27.132,50.984 C27.132,52.575 27.331,54.067 23.072,54.067 L1.184,54.067 L1.184,48.796 L16.436,48.796 C18.12,48.796 18.219,47.602 17.129,46.807 C11.088,41.833 0.094,37.854 0.094,28.206 C0.094,21.442 5.839,15.672 12.177,15.672 L35.947,15.672 Z M40.602,21.044 L45.95,21.044 L45.95,0.752 L40.602,0.752 L40.602,21.044 Z M51.298,0.752 L51.298,21.044 L68.333,21.044 L68.333,15.672 L56.547,15.672 L56.547,0.752 L51.298,0.752 Z M68.333,25.421 L51.298,25.421 L51.298,47.702 C51.298,50.486 54.765,54.067 58.33,54.067 L68.333,54.067 L68.333,48.796 L61.103,48.796 C58.528,48.796 56.547,46.807 56.547,45.215 L56.547,30.493 L68.333,30.493 L68.333,25.421 Z M40.602,25.421 L45.95,25.421 L45.95,48.796 C45.95,52.575 50.902,58.444 58.033,58.444 L68.333,58.444 L68.333,63.716 L57.637,63.716 C44.068,63.716 40.602,55.261 40.602,48.796 L40.602,25.421 Z M104.086,63.318 L104.086,39.844 C104.086,34.771 99.729,30.792 94.479,30.792 C89.33,30.792 85.071,34.771 85.071,39.844 C85.071,44.817 89.33,48.796 94.479,48.796 C96.262,48.796 97.847,48.298 99.332,47.503 L99.332,53.272 C97.748,53.769 96.163,54.067 94.479,54.067 C86.259,54.067 79.426,47.602 79.426,39.744 C79.426,31.886 86.259,25.421 94.479,25.421 C102.799,25.421 109.633,31.886 109.633,39.744 L109.633,63.318 L104.086,63.318 Z M114.288,63.318 L119.834,63.318 L119.834,39.744 C119.834,26.515 108.444,15.672 94.479,15.672 C80.614,15.672 69.225,26.515 69.225,39.744 C69.225,52.973 80.614,63.816 94.479,63.816 C96.064,63.816 97.748,63.617 99.332,63.318 L99.332,57.847 C97.748,58.245 96.163,58.444 94.479,58.444 C83.685,58.444 74.771,49.989 74.771,39.744 C74.771,29.499 83.685,21.044 94.479,21.044 C105.374,21.044 114.188,29.499 114.188,39.744 L114.288,63.318 Z M123.696,63.318 L128.945,63.318 L128.945,15.672 L123.696,15.672 L123.696,63.318 Z M134.194,15.672 L134.194,32.184 C139.543,25.421 147.763,21.044 156.578,21.044 L156.578,15.672 C150.239,15.672 144.594,17.662 139.543,21.044 L139.543,15.672 L134.194,15.672 Z M134.194,63.318 L134.194,45.016 C134.194,35.964 143.009,26.515 152.715,25.619 L156.578,26.912 L156.578,30.593 C146.079,30.593 139.543,39.844 139.543,44.718 L139.543,63.318 L134.194,63.318 Z"/>
    <path stroke="#292D78" stroke-width="1.587" d="M156.572167,20.8406442 L164.693261,20.4427708 L164.693261,23.2288868 L160.236089,24.6209426 L164.594479,26.2124362 L164.594479,32.5784106 L168.75331,27.5062764 L176.082151,29.1969878 L172.517011,24.0246336 L186.976131,4.5278348 L187.174693,10.0980624 L177.369313,23.725978 L185.391625,35.8616178 L170.140252,31.3847904 L160.533433,42.6254656 L160.632215,28.401241 L153.10581,25.9137806 M0.19296,93.35683 L156.869512,93.35683 M0.19296,69.184768 L156.869512,69.184768"/>
    <path fill="#292D78" fill-rule="nonzero" d="M146.773,88.484 L146.773,84.008 L150.14,84.008 C151.23,84.008 151.23,83.411 149.843,82.814 C148.06,82.118 146.773,81.123 146.773,78.935 C146.773,76.448 149.15,75.652 150.437,75.652 L156.082,75.652 L156.082,79.731 L153.408,79.731 C152.715,79.731 152.022,80.129 153.408,81.024 C154.894,81.72 156.281,82.416 156.479,84.804 C156.479,87.092 155.488,88.484 152.418,88.484 L146.773,88.484 M138.948,88.484 L136.572,88.484 C127.064,88.484 127.262,75.354 136.671,75.354 L138.948,75.354 L138.948,80.029 L136.572,80.029 C134.294,80.029 134.096,83.809 136.572,83.809 L138.948,83.809 L138.948,88.484"/>
    <polygon fill="#292D78" fill-rule="nonzero" points="116.367 88.484 121.913 88.484 121.913 75.652 116.367 75.652"/>
    <path fill="#292D78" fill-rule="nonzero" d="M96.46,88.484 L96.46,80.328 C96.46,73.862 108.84,73.862 108.84,80.626 L108.84,88.484 L103.393,88.484 L103.393,81.024 C103.393,79.532 101.709,80.029 101.709,81.024 L101.709,88.484 L96.46,88.484 Z M80.515,81.919 C80.515,84.008 83.783,84.008 83.783,81.919 C83.783,79.731 80.515,79.93 80.515,81.919 Z M75.464,81.919 C75.464,78.338 78.237,75.255 81.902,75.255 C86.161,75.255 88.834,78.438 88.834,81.72 C88.834,86.296 85.368,88.783 81.902,88.783 C79.327,88.783 75.464,86.594 75.464,81.919 Z M58.132,88.484 L58.132,75.652 L62.985,75.652 L62.985,77.344 C64.669,75.354 66.352,75.354 68.036,75.354 L68.036,79.731 C65.758,79.731 63.381,80.029 63.381,83.013 L63.381,88.484 L58.132,88.484 Z M50.308,88.484 L47.931,88.484 C38.423,88.484 38.621,75.354 48.03,75.354 L50.308,75.354 L50.308,80.029 L47.931,80.029 C45.653,80.029 45.455,83.809 47.931,83.809 L50.308,83.809 L50.308,88.484 Z"/>
    <polygon fill="#292D78" fill-rule="nonzero" points="27.727 88.484 33.273 88.484 33.273 75.652 27.727 75.652"/>
    <path fill="#292D78" fill-rule="nonzero" d="M7.721,88.484 L7.721,81.123 C7.721,79.333 5.938,79.731 5.938,81.123 L5.938,88.484 L0.689,88.484 L0.689,80.726 C0.689,74.26 8.612,74.26 10.395,77.045 C12.97,74.26 19.902,74.658 19.902,80.626 L19.902,88.484 L14.653,88.484 L14.653,81.024 C14.653,79.532 12.97,79.532 12.97,81.422 L12.97,88.484 L7.721,88.484"/>
  </g>
</svg>
