<svg xmlns="http://www.w3.org/2000/svg" xmlns:xlink="http://www.w3.org/1999/xlink" width="389" height="256" viewBox="0 0 389 256">
  <defs>
    <rect id="api-2-a" width="307" height="235.783" rx="10"/>
    <filter id="api-2-b" width="103.3%" height="104.2%" x="-1.6%" y="-1.7%" filterUnits="objectBoundingBox">
      <feOffset dy="1" in="SourceAlpha" result="shadowOffsetOuter1"/>
      <feGaussianBlur in="shadowOffsetOuter1" result="shadowBlurOuter1" stdDeviation="1.5"/>
      <feColorMatrix in="shadowBlurOuter1" values="0 0 0 0 0.321568627   0 0 0 0 0.380392157   0 0 0 0 0.450980392  0 0 0 0.2 0"/>
    </filter>
    <rect id="api-2-c" width="307" height="235.783" rx="10"/>
    <filter id="api-2-d" width="110.4%" height="113.6%" x="-4.6%" y="-5.9%" filterUnits="objectBoundingBox">
      <feOffset dx="2" dy="2" in="SourceAlpha" result="shadowOffsetOuter1"/>
      <feGaussianBlur in="shadowOffsetOuter1" result="shadowBlurOuter1" stdDeviation="5"/>
      <feColorMatrix in="shadowBlurOuter1" values="0 0 0 0 0   0 0 0 0 0   0 0 0 0 0  0 0 0 0.2 0"/>
    </filter>
    <rect id="api-2-e" width="276" height="32.107" x="15" y="16.053" rx="10"/>
    <path id="api-2-f" d="M21,16.0532801 L21,48.1598402 L21,48.1598402 C17.6862915,48.1598402 15,45.4735487 15,42.1598402 L15,22.0532801 C15,18.7395716 17.6862915,16.0532801 21,16.0532801 Z"/>
    <rect id="api-2-g" width="276" height="153.509" x="15" y="65.216" rx="10"/>
  </defs>
  <g fill="none" fill-rule="evenodd" transform="translate(8 7.996)">
    <g transform="translate(294 11.037)">
      <path fill="#623BCC" fill-rule="nonzero" d="M75.0973949,41.4920968 L73.5634306,43.4776852 C73.191937,43.9585525 73.1980335,44.7407081 73.5769522,45.2117618 L79.8858554,53.0543607 L52.9379177,53.0543607 C52.4199526,53.0543607 52,53.5979542 52,54.2684166 L52,57.1012138 C52,57.7716761 52.4199526,58.3152697 52.9379177,58.3152697 L79.8858554,58.3152697 L73.5770304,66.1578686 C73.1980335,66.6289223 73.191937,67.4110778 73.5635087,67.8919451 L75.0974731,69.8775336 C75.4637299,70.3516224 76.0575881,70.3516224 76.4239232,69.8775336 L86.7253074,56.5432539 C87.0915642,56.0691651 87.0915642,55.3004653 86.7253074,54.8262753 L76.4237668,41.4920968 C76.05751,41.0180079 75.4636518,41.0180079 75.0973949,41.4920968 Z"/>
      <path stroke="#623BCC" stroke-linecap="square" stroke-width="5.3" d="M0.5,55.6848152 L62.5,55.6848152"/>
      <path fill="#DED4FF" fill-rule="nonzero" d="M35.0973949,0.355566628 L33.5634306,2.34115509 C33.191937,2.82202241 33.1980335,3.60417793 33.5769522,4.07523163 L39.8858554,11.9178305 L12.9379177,11.9178305 C12.4199526,11.9178305 12,12.4614241 12,13.1318865 L12,15.9646836 C12,16.635146 12.4199526,17.1787395 12.9379177,17.1787395 L39.8858554,17.1787395 L33.5770304,25.0213385 C33.1980335,25.4923922 33.191937,26.2745477 33.5635087,26.755415 L35.0974731,28.7410035 C35.4637299,29.2150923 36.0575881,29.2150923 36.4239232,28.7410035 L46.7253074,15.4067238 C47.0915642,14.9326349 47.0915642,14.1639352 46.7253074,13.6897452 L36.4237668,0.355566628 C36.05751,-0.118522209 35.4636518,-0.118522209 35.0973949,0.355566628 Z"/>
      <path fill="#BC97FF" fill-rule="nonzero" d="M54.0973949,19.4188367 L52.5634306,21.4044252 C52.191937,21.8852925 52.1980335,22.667448 52.5769522,23.1385017 L58.8858554,30.9811006 L31.9379177,30.9811006 C31.4199526,30.9811006 31,31.5246942 31,32.1951565 L31,35.0279537 C31,35.6984161 31.4199526,36.2420096 31.9379177,36.2420096 L58.8858554,36.2420096 L52.5770304,44.0846085 C52.1980335,44.5556622 52.191937,45.3378178 52.5635087,45.8186851 L54.0974731,47.8042735 C54.4637299,48.2783624 55.0575881,48.2783624 55.4239232,47.8042735 L65.7253074,34.4699938 C66.0915642,33.995905 66.0915642,33.2272052 65.7253074,32.7530152 L55.4237668,19.4188367 C55.05751,18.9447479 54.4636518,18.9447479 54.0973949,19.4188367 Z"/>
      <path stroke="#BC97FF" stroke-linecap="square" stroke-width="5.3" d="M15.5,33.6115551 L41.5,33.6115551"/>
    </g>
    <use fill="#000" filter="url(#api-2-b)" xlink:href="#api-2-a"/>
    <use fill="#FFF" xlink:href="#api-2-a"/>
    <use fill="#000" filter="url(#api-2-d)" xlink:href="#api-2-c"/>
    <use fill="#FFF" xlink:href="#api-2-c"/>
    <use fill="#F5F5F5" xlink:href="#api-2-e"/>
    <use fill="#DED4FF" xlink:href="#api-2-f"/>
    <mask id="api-2-h" fill="#fff">
      <use xlink:href="#api-2-g"/>
    </mask>
    <use fill="#F5F5F5" xlink:href="#api-2-g"/>
    <path fill="#DED4FF" d="M21,65.2164502 L21,218.725941 L21,218.725941 C17.6862915,218.725941 15,216.039649 15,212.725941 L15,71.2164502 C15,67.9027417 17.6862915,65.2164502 21,65.2164502 Z" mask="url(#api-2-h)"/>
    <path fill="#3C3C3C" d="M42.3613281 114.503407L41.8984375 114.503407C41.3359347 114.503407 40.9306653 114.352041 40.6826172 114.049305 40.4345691 113.746569 40.3105469 113.185051 40.3105469 112.364735L40.3105469 111.802235C40.3105469 111.071762 40.2148447 110.562978 40.0234375 110.275868 39.8320303 109.988757 39.5234396 109.845204 39.0976562 109.845204L39.0976562 108.890125C39.5234396 108.890125 39.8320303 108.746572 40.0234375 108.459461 40.2148447 108.172351 40.3105469 107.663567 40.3105469 106.933094L40.3105469 106.364735C40.3105469 105.548325 40.4345691 104.98876 40.6826172 104.686024 40.9306653 104.383288 41.3359347 104.231922 41.8984375 104.231922L42.3613281 104.231922 42.3613281 104.9995 42.1855469 104.9995C41.8222638 104.9995 41.5693367 105.077625 41.4267578 105.233875 41.284179 105.390126 41.2128906 105.763169 41.2128906 106.353016L41.2128906 106.728016C41.2128906 107.536614 41.1191416 108.132311 40.9316406 108.515125 40.7441397 108.89794 40.4257835 109.18114 39.9765625 109.364735 40.4257835 109.552236 40.7441397 109.837389 40.9316406 110.220204 41.1191416 110.603018 41.2128906 111.198715 41.2128906 112.007313L41.2128906 112.382313C41.2128906 112.97216 41.284179 113.345203 41.4267578 113.501454 41.5693367 113.657704 41.8222638 113.735829 42.1855469 113.735829L42.3613281 113.735829 42.3613281 114.503407zM56.7636719 118.483875C56.287107 118.718252 56.0488281 118.99364 56.0488281 119.310047 56.2519541 119.333485 56.4199212 119.416492 56.5527344 119.559071 56.6855475 119.70165 56.7519531 119.866687 56.7519531 120.054188 56.7519531 120.253408 56.6875006 120.421375 56.5585938 120.558094 56.4296869 120.694814 56.2675791 120.763172 56.0722656 120.763172 55.8535145 120.763172 55.6640633 120.674306 55.5039062 120.496571 55.3437492 120.318836 55.2636719 120.103017 55.2636719 119.84911 55.2636719 119.087387 55.6894489 118.49169 56.5410156 118.062L56.7636719 118.483875zM54.6191406 118.483875C54.1386695 118.718252 53.8984375 118.99364 53.8984375 119.310047 54.1054698 119.333485 54.27539 119.416492 54.4082031 119.559071 54.5410163 119.70165 54.6074219 119.866687 54.6074219 120.054188 54.6074219 120.253408 54.5419928 120.421375 54.4111328 120.558094 54.2802728 120.694814 54.1171885 120.763172 53.921875 120.763172 53.7031239 120.763172 53.5146492 120.674306 53.3564453 120.496571 53.1982414 120.318836 53.1191406 120.103017 53.1191406 119.84911 53.1191406 119.087387 53.5429645 118.49169 54.390625 118.062L54.6191406 118.483875zM64.5449219 126.4995L63.6308594 126.4995 63.6308594 125.620594C63.4433584 125.921377 63.1748064 126.169421 62.8251953 126.364735 62.4755842 126.560048 62.1074238 126.657704 61.7207031 126.657704 61.0214809 126.657704 60.468752 126.346183 60.0625 125.723133 59.656248 125.100083 59.453125 124.310052 59.453125 123.353016 59.453125 122.45848 59.6650369 121.717277 60.0888672 121.129383 60.5126974 120.54149 61.0742153 120.247547 61.7734375 120.247547 62.5429726 120.247547 63.162107 120.560044 63.6308594 121.185047L63.6308594 118.231922 64.5449219 118.231922 64.5449219 126.4995zM63.6308594 124.63036L63.6308594 122.09325C63.1933572 121.390122 62.6660187 121.038563 62.0488281 121.038563 61.5449194 121.038563 61.1464858 121.262194 60.8535156 121.709461 60.5605454 122.156729 60.4140625 122.722153 60.4140625 123.40575 60.4140625 124.108879 60.5517564 124.689928 60.8271484 125.148915 61.1025404 125.607901 61.4804663 125.837391 61.9609375 125.837391 62.1914074 125.837391 62.423827 125.774892 62.6582031 125.649891 62.8925793 125.52489 63.1132802 125.337392 63.3203125 125.087391 63.5273448 124.83739 63.6308594 124.685048 63.6308594 124.63036zM71.921875 126.4995L71.0136719 126.4995C70.9394528 126.253406 70.9023438 125.925284 70.9023438 125.515125 70.3828099 126.276848 69.6757857 126.657704 68.78125 126.657704 68.3281227 126.657704 67.9287127 126.496572 67.5830078 126.174305 67.237303 125.852038 67.0644531 125.437003 67.0644531 124.929188 67.0644531 124.628405 67.1249994 124.362783 67.2460938 124.132313 67.3671881 123.901843 67.5449207 123.707509 67.7792969 123.549305 68.013673 123.391101 68.2988264 123.266103 68.6347656 123.174305 68.9707048 123.082508 69.3691383 123.019032 69.8300781 122.983875L70.8554688 122.901844 70.8554688 122.608875C70.8554688 121.561995 70.3671924 121.038563 69.390625 121.038563 69.1601551 121.038563 68.8681658 121.088367 68.5146484 121.187977 68.161131 121.287587 67.8574231 121.40575 67.6035156 121.542469L67.3632812 120.886219C68.1953167 120.460436 68.9687464 120.247547 69.6835938 120.247547 71.0742257 120.247547 71.7695312 120.983868 71.7695312 122.456532L71.7695312 125.081532C71.7695312 125.612784 71.820312 126.085436 71.921875 126.4995zM70.8554688 124.688954L70.8554688 123.581532C70.0312459 123.655751 69.4658218 123.725086 69.1591797 123.78954 68.8525375 123.853993 68.5869152 123.974109 68.3623047 124.149891 68.1376942 124.325673 68.0253906 124.563952 68.0253906 124.864735 68.0253906 125.138174 68.1210928 125.358875 68.3125 125.526844 68.5039072 125.694814 68.7480454 125.778797 69.0449219 125.778797 69.3691422 125.778797 69.6914046 125.682119 70.0117188 125.488758 70.3320329 125.295398 70.61328 125.028799 70.8554688 124.688954zM79.0292969 126.22411C78.4160126 126.505361 77.812503 126.645985 77.21875 126.645985 76.1289008 126.645985 75.5839844 126.069819 75.5839844 124.917469L75.5839844 121.185047 74.4121094 121.185047 74.4121094 120.394032 75.5839844 120.394032 75.5839844 118.72411 76.4746094 118.72411 76.4746094 120.394032 78.5488281 120.394032 78.5488281 121.185047 76.4746094 121.185047 76.4746094 124.677235C76.4746094 125.04833 76.5566398 125.336414 76.7207031 125.541493 76.8847664 125.746572 77.1074205 125.84911 77.3886719 125.84911 77.8886744 125.84911 78.3828101 125.737783 78.8710938 125.515125L79.0292969 126.22411zM86.3242188 126.4995L85.4160156 126.4995C85.3417965 126.253406 85.3046875 125.925284 85.3046875 125.515125 84.7851537 126.276848 84.0781295 126.657704 83.1835938 126.657704 82.7304665 126.657704 82.3310564 126.496572 81.9853516 126.174305 81.6396467 125.852038 81.4667969 125.437003 81.4667969 124.929188 81.4667969 124.628405 81.5273431 124.362783 81.6484375 124.132313 81.7695319 123.901843 81.9472645 123.707509 82.1816406 123.549305 82.4160168 123.391101 82.7011702 123.266103 83.0371094 123.174305 83.3730486 123.082508 83.7714821 123.019032 84.2324219 122.983875L85.2578125 122.901844 85.2578125 122.608875C85.2578125 121.561995 84.7695361 121.038563 83.7929688 121.038563 83.5624988 121.038563 83.2705096 121.088367 82.9169922 121.187977 82.5634748 121.287587 82.2597669 121.40575 82.0058594 121.542469L81.765625 120.886219C82.5976604 120.460436 83.3710902 120.247547 84.0859375 120.247547 85.4765695 120.247547 86.171875 120.983868 86.171875 122.456532L86.171875 125.081532C86.171875 125.612784 86.2226557 126.085436 86.3242188 126.4995zM85.2578125 124.688954L85.2578125 123.581532C84.4335896 123.655751 83.8681656 123.725086 83.5615234 123.78954 83.2548813 123.853993 82.9892589 123.974109 82.7646484 124.149891 82.5400379 124.325673 82.4277344 124.563952 82.4277344 124.864735 82.4277344 125.138174 82.5234365 125.358875 82.7148438 125.526844 82.906251 125.694814 83.1503891 125.778797 83.4472656 125.778797 83.771486 125.778797 84.0937484 125.682119 84.4140625 125.488758 84.7343766 125.295398 85.0156238 125.028799 85.2578125 124.688954zM92.0253906 119.526844C91.8222646 119.503407 91.6542975 119.4204 91.5214844 119.277821 91.3886712 119.135242 91.3222656 118.970205 91.3222656 118.782704 91.3222656 118.583484 91.3876947 118.415517 91.5185547 118.278797 91.6494147 118.142078 91.8105459 118.073719 92.0019531 118.073719 92.2207042 118.073719 92.4101554 118.162586 92.5703125 118.340321 92.7304696 118.518056 92.8105469 118.733874 92.8105469 118.987782 92.8105469 119.749504 92.386723 120.345201 91.5390625 120.774891L91.3105469 120.353016C91.7871118 120.11864 92.0253906 119.843252 92.0253906 119.526844zM89.8808594 119.526844C89.6738271 119.503407 89.5039069 119.4204 89.3710938 119.277821 89.2382806 119.135242 89.171875 118.970205 89.171875 118.782704 89.171875 118.583484 89.237304 118.415517 89.3681641 118.278797 89.4990241 118.142078 89.6621084 118.073719 89.8574219 118.073719 90.076173 118.073719 90.2646476 118.162586 90.4228516 118.340321 90.5810555 118.518056 90.6601562 118.733874 90.6601562 118.987782 90.6601562 119.749504 90.2363324 120.345201 89.3886719 120.774891L89.1601562 120.353016C89.6406274 120.11864 89.8808594 119.843252 89.8808594 119.526844zM98.1601562 120.306141C98.359376 120.306141 98.5273431 120.373523 98.6640625 120.50829 98.8007819 120.643056 98.8691406 120.808093 98.8691406 121.003407 98.8691406 121.19872 98.8007819 121.363758 98.6640625 121.498524 98.5273431 121.63329 98.359376 121.700672 98.1601562 121.700672 97.9648428 121.700672 97.7998054 121.63329 97.6650391 121.498524 97.5302728 121.363758 97.4628906 121.19872 97.4628906 121.003407 97.4628906 120.808093 97.5302728 120.643056 97.6650391 120.50829 97.7998054 120.373523 97.9648428 120.306141 98.1601562 120.306141zM98.1601562 125.204579C98.359376 125.204579 98.5273431 125.270984 98.6640625 125.403797 98.8007819 125.536611 98.8691406 125.702625 98.8691406 125.901844 98.8691406 126.097158 98.8007819 126.261219 98.6640625 126.394032 98.5273431 126.526845 98.359376 126.59325 98.1601562 126.59325 97.9648428 126.59325 97.7998054 126.526845 97.6650391 126.394032 97.5302728 126.261219 97.4628906 126.097158 97.4628906 125.901844 97.4628906 125.702625 97.5302728 125.536611 97.6650391 125.403797 97.7998054 125.270984 97.9648428 125.204579 98.1601562 125.204579zM114.349609 128.081532L112.070312 128.081532 112.070312 118.231922 114.349609 118.231922 114.349609 119.034657 112.984375 119.034657 112.984375 127.290516 114.349609 127.290516 114.349609 128.081532zM121.574219 128.503407L121.111328 128.503407C120.548825 128.503407 120.143556 128.352041 119.895508 128.049305 119.64746 127.746569 119.523438 127.185051 119.523438 126.364735L119.523438 125.802235C119.523438 125.071762 119.427735 124.562978 119.236328 124.275868 119.044921 123.988757 118.73633 123.845204 118.310547 123.845204L118.310547 122.890125C118.73633 122.890125 119.044921 122.746572 119.236328 122.459461 119.427735 122.172351 119.523438 121.663567 119.523438 120.933094L119.523438 120.364735C119.523438 119.548325 119.64746 118.98876 119.895508 118.686024 120.143556 118.383288 120.548825 118.231922 121.111328 118.231922L121.574219 118.231922 121.574219 118.9995 121.398438 118.9995C121.035154 118.9995 120.782227 119.077625 120.639648 119.233875 120.49707 119.390126 120.425781 119.763169 120.425781 120.353016L120.425781 120.728016C120.425781 121.536614 120.332032 122.132311 120.144531 122.515125 119.95703 122.89794 119.638674 123.18114 119.189453 123.364735 119.638674 123.552236 119.95703 123.837389 120.144531 124.220204 120.332032 124.603018 120.425781 125.198715 120.425781 126.007313L120.425781 126.382313C120.425781 126.97216 120.49707 127.345203 120.639648 127.501454 120.782227 127.657704 121.035154 127.735829 121.398438 127.735829L121.574219 127.735829 121.574219 128.503407zM71.1660156 132.483875C70.6894507 132.718252 70.4511719 132.99364 70.4511719 133.310047 70.6542979 133.333485 70.822265 133.416492 70.9550781 133.559071 71.0878913 133.70165 71.1542969 133.866687 71.1542969 134.054188 71.1542969 134.253408 71.0898444 134.421375 70.9609375 134.558094 70.8320306 134.694814 70.6699229 134.763172 70.4746094 134.763172 70.2558583 134.763172 70.0664071 134.674306 69.90625 134.496571 69.7460929 134.318836 69.6660156 134.103017 69.6660156 133.84911 69.6660156 133.087387 70.0917926 132.49169 70.9433594 132.062L71.1660156 132.483875zM69.0214844 132.483875C68.5410132 132.718252 68.3007812 132.99364 68.3007812 133.310047 68.5078135 133.333485 68.6777337 133.416492 68.8105469 133.559071 68.94336 133.70165 69.0097656 133.866687 69.0097656 134.054188 69.0097656 134.253408 68.9443366 134.421375 68.8134766 134.558094 68.6826165 134.694814 68.5195322 134.763172 68.3242188 134.763172 68.1054677 134.763172 67.916993 134.674306 67.7587891 134.496571 67.6005851 134.318836 67.5214844 134.103017 67.5214844 133.84911 67.5214844 133.087387 67.9453083 132.49169 68.7929688 132.062L69.0214844 132.483875zM78.3320312 135.267079C77.8203099 135.099109 77.3378929 135.015125 76.8847656 135.015125 76.3886694 135.015125 75.9960952 135.098132 75.7070312 135.264149 75.4179673 135.430165 75.2734375 135.651843 75.2734375 135.929188 75.2734375 136.10497 75.3398431 136.258289 75.4726562 136.389149 75.6054694 136.520009 75.8710918 136.642078 76.2695312 136.75536L77.1425781 137.007313C77.5449239 137.120595 77.8730456 137.256336 78.1269531 137.41454 78.3808606 137.572743 78.5712884 137.764148 78.6982422 137.988758 78.8251959 138.213369 78.8886719 138.474108 78.8886719 138.770985 78.8886719 139.353019 78.6445337 139.812975 78.15625 140.150868 77.6679663 140.48876 77.0468788 140.657704 76.2929688 140.657704 75.542965 140.657704 74.9238306 140.544424 74.4355469 140.31786L74.6113281 139.526844C75.1230494 139.769033 75.6718721 139.890125 76.2578125 139.890125 76.7656275 139.890125 77.1787093 139.7954 77.4970703 139.605946 77.8154313 139.416492 77.9746094 139.165518 77.9746094 138.853016 77.9746094 138.642078 77.8955086 138.453603 77.7373047 138.287586 77.5791008 138.12157 77.2070342 137.94872 76.6210938 137.769032 76.1484351 137.6245 75.8007824 137.516102 75.578125 137.443836 75.3554676 137.37157 75.1484385 137.265126 74.9570312 137.1245 74.765624 136.983875 74.6201177 136.815908 74.5205078 136.620594 74.4208979 136.425281 74.3710938 136.206533 74.3710938 135.964344 74.3710938 135.436998 74.6015602 135.019033 75.0625 134.710438 75.5234398 134.401843 76.1347618 134.247547 76.8964844 134.247547 77.3886743 134.247547 77.9355439 134.331531 78.5371094 134.4995L78.3320312 135.267079zM86.2304688 140.22411C85.6171844 140.505361 85.0136748 140.645985 84.4199219 140.645985 83.3300727 140.645985 82.7851562 140.069819 82.7851562 138.917469L82.7851562 135.185047 81.6132812 135.185047 81.6132812 134.394032 82.7851562 134.394032 82.7851562 132.72411 83.6757812 132.72411 83.6757812 134.394032 85.75 134.394032 85.75 135.185047 83.6757812 135.185047 83.6757812 138.677235C83.6757812 139.04833 83.7578117 139.336414 83.921875 139.541493 84.0859383 139.746572 84.3085923 139.84911 84.5898438 139.84911 85.0898462 139.84911 85.5839819 139.737783 86.0722656 139.515125L86.2304688 140.22411zM91.0058594 134.247547C91.8457073 134.247547 92.5136694 134.540513 93.0097656 135.126454 93.5058619 135.712394 93.7539062 136.483871 93.7539062 137.440907 93.7539062 138.405755 93.5058619 139.183091 93.0097656 139.772938 92.5136694 140.362785 91.8457073 140.657704 91.0058594 140.657704 90.1621052 140.657704 89.4931665 140.363761 88.9990234 139.775868 88.5048803 139.187974 88.2578125 138.409662 88.2578125 137.440907 88.2578125 136.479964 88.5058569 135.707511 89.0019531 135.123524 89.4980494 134.539537 90.1660114 134.247547 91.0058594 134.247547zM91.0058594 139.860829C91.5605496 139.860829 91.9980453 139.626456 92.3183594 139.157704 92.6386735 138.688951 92.7988281 138.120598 92.7988281 137.452625 92.7988281 136.749497 92.6406266 136.171378 92.3242188 135.71825 92.0078109 135.265123 91.5683622 135.038563 91.0058594 135.038563 90.4394503 135.038563 90.0000016 135.262194 89.6875 135.709461 89.3749984 136.156729 89.21875 136.737778 89.21875 137.452625 89.21875 138.132316 89.3769515 138.7036 89.6933594 139.166493 90.0097672 139.629386 90.4472628 139.860829 91.0058594 139.860829zM100.667969 134.558094L100.298828 135.437C99.8964824 135.261218 99.5488296 135.173329 99.2558594 135.173329 98.9863268 135.173329 98.7226575 135.250476 98.4648438 135.404774 98.20703 135.559072 97.9697276 135.779773 97.7529297 136.066883 97.5361317 136.353994 97.4277344 136.515125 97.4277344 136.550282L97.4277344 140.4995 96.5195312 140.4995 96.5195312 134.394032 97.4277344 134.394032 97.4277344 135.63036C97.9160181 134.70848 98.5488242 134.247547 99.3261719 134.247547 99.7871117 134.247547 100.234373 134.351062 100.667969 134.558094zM107.957031 137.476063L103.767578 137.476063C103.767578 138.167473 103.967771 138.73778 104.368164 139.187 104.768557 139.636221 105.259763 139.860829 105.841797 139.860829 106.396487 139.860829 106.968747 139.76122 107.558594 139.562L107.716797 140.294422C107.177732 140.536611 106.548832 140.657704 105.830078 140.657704 104.923824 140.657704 104.193362 140.366691 103.638672 139.784657 103.083982 139.202623 102.806641 138.417474 102.806641 137.429188 102.806641 136.460433 103.055662 135.68798 103.553711 135.111805 104.05176 134.53563 104.695309 134.247547 105.484375 134.247547 106.187504 134.247547 106.775388 134.515123 107.248047 135.050282 107.720705 135.585441 107.957031 136.298324 107.957031 137.188954L107.957031 137.476063zM106.960938 136.731922C106.960938 136.255357 106.812501 135.853994 106.515625 135.527821 106.218749 135.201647 105.886721 135.038563 105.519531 135.038563 105.046873 135.038563 104.655275 135.194811 104.344727 135.507313 104.034178 135.819815 103.861328 136.228014 103.826172 136.731922L106.960938 136.731922zM116.212891 143.112782L109.011719 143.112782 109.011719 142.345204 116.212891 142.345204 116.212891 143.112782zM120.208984 132.085438C120.38086 132.085438 120.527343 132.146961 120.648438 132.270008 120.769532 132.393056 120.830078 132.540515 120.830078 132.712391 120.830078 132.89208 120.770508 133.042469 120.651367 133.163563 120.532226 133.284657 120.384767 133.345204 120.208984 133.345204 120.048827 133.345204 119.907227 133.281728 119.78418 133.154774 119.661132 133.02782 119.599609 132.880361 119.599609 132.712391 119.599609 132.544422 119.661132 132.397939 119.78418 132.272938 119.907227 132.147937 120.048827 132.085438 120.208984 132.085438zM120.654297 140.4995L119.740234 140.4995 119.740234 135.185047 117.941406 135.185047 117.941406 134.394032 120.654297 134.394032 120.654297 140.4995zM129.355469 140.4995L128.441406 140.4995 128.441406 139.620594C128.253905 139.921377 127.985353 140.169421 127.635742 140.364735 127.286131 140.560048 126.917971 140.657704 126.53125 140.657704 125.832028 140.657704 125.279299 140.346183 124.873047 139.723133 124.466795 139.100083 124.263672 138.310052 124.263672 137.353016 124.263672 136.45848 124.475584 135.717277 124.899414 135.129383 125.323244 134.54149 125.884762 134.247547 126.583984 134.247547 127.353519 134.247547 127.972654 134.560044 128.441406 135.185047L128.441406 132.231922 129.355469 132.231922 129.355469 140.4995zM128.441406 138.63036L128.441406 136.09325C128.003904 135.390122 127.476566 135.038563 126.859375 135.038563 126.355466 135.038563 125.957033 135.262194 125.664062 135.709461 125.371092 136.156729 125.224609 136.722153 125.224609 137.40575 125.224609 138.108879 125.362303 138.689928 125.637695 139.148915 125.913087 139.607901 126.291013 139.837391 126.771484 139.837391 127.001954 139.837391 127.234374 139.774892 127.46875 139.649891 127.703126 139.52489 127.923827 139.337392 128.130859 139.087391 128.337892 138.83739 128.441406 138.685048 128.441406 138.63036zM135.232422 133.526844C135.029296 133.503407 134.861329 133.4204 134.728516 133.277821 134.595702 133.135242 134.529297 132.970205 134.529297 132.782704 134.529297 132.583484 134.594726 132.415517 134.725586 132.278797 134.856446 132.142078 135.017577 132.073719 135.208984 132.073719 135.427735 132.073719 135.617187 132.162586 135.777344 132.340321 135.937501 132.518056 136.017578 132.733874 136.017578 132.987782 136.017578 133.749504 135.593754 134.345201 134.746094 134.774891L134.517578 134.353016C134.994143 134.11864 135.232422 133.843252 135.232422 133.526844zM133.087891 133.526844C132.880858 133.503407 132.710938 133.4204 132.578125 133.277821 132.445312 133.135242 132.378906 132.970205 132.378906 132.782704 132.378906 132.583484 132.444335 132.415517 132.575195 132.278797 132.706055 132.142078 132.86914 132.073719 133.064453 132.073719 133.283204 132.073719 133.471679 132.162586 133.629883 132.340321 133.788087 132.518056 133.867188 132.733874 133.867188 132.987782 133.867188 133.749504 133.443364 134.345201 132.595703 134.774891L132.367188 134.353016C132.847659 134.11864 133.087891 133.843252 133.087891 133.526844zM141.367188 134.306141C141.566407 134.306141 141.734374 134.373523 141.871094 134.50829 142.007813 134.643056 142.076172 134.808093 142.076172 135.003407 142.076172 135.19872 142.007813 135.363758 141.871094 135.498524 141.734374 135.63329 141.566407 135.700672 141.367188 135.700672 141.171874 135.700672 141.006837 135.63329 140.87207 135.498524 140.737304 135.363758 140.669922 135.19872 140.669922 135.003407 140.669922 134.808093 140.737304 134.643056 140.87207 134.50829 141.006837 134.373523 141.171874 134.306141 141.367188 134.306141zM141.367188 139.204579C141.566407 139.204579 141.734374 139.270984 141.871094 139.403797 142.007813 139.536611 142.076172 139.702625 142.076172 139.901844 142.076172 140.097158 142.007813 140.261219 141.871094 140.394032 141.734374 140.526845 141.566407 140.59325 141.367188 140.59325 141.171874 140.59325 141.006837 140.526845 140.87207 140.394032 140.737304 140.261219 140.669922 140.097158 140.669922 139.901844 140.669922 139.702625 140.737304 139.536611 140.87207 139.403797 141.006837 139.270984 141.171874 139.204579 141.367188 139.204579zM158.183594 140.4995L153.835938 140.4995 153.835938 139.66161 155.587891 139.66161 155.587891 133.239735 153.935547 134.065907 153.935547 133.104969 155.722656 132.185047 156.548828 132.185047 156.548828 139.66161 158.183594 139.66161 158.183594 140.4995zM70.3613281 146.483875C69.8847632 146.718252 69.6464844 146.99364 69.6464844 147.310047 69.8496104 147.333485 70.0175775 147.416492 70.1503906 147.559071 70.2832038 147.70165 70.3496094 147.866687 70.3496094 148.054188 70.3496094 148.253408 70.2851569 148.421375 70.15625 148.558094 70.0273431 148.694814 69.8652354 148.763172 69.6699219 148.763172 69.4511708 148.763172 69.2617196 148.674306 69.1015625 148.496571 68.9414054 148.318836 68.8613281 148.103017 68.8613281 147.84911 68.8613281 147.087387 69.2871051 146.49169 70.1386719 146.062L70.3613281 146.483875zM68.2167969 146.483875C67.7363257 146.718252 67.4960938 146.99364 67.4960938 147.310047 67.703126 147.333485 67.8730462 147.416492 68.0058594 147.559071 68.1386725 147.70165 68.2050781 147.866687 68.2050781 148.054188 68.2050781 148.253408 68.1396491 148.421375 68.0087891 148.558094 67.877929 148.694814 67.7148447 148.763172 67.5195312 148.763172 67.3007802 148.763172 67.1123055 148.674306 66.9541016 148.496571 66.7958976 148.318836 66.7167969 148.103017 66.7167969 147.84911 66.7167969 147.087387 67.1406208 146.49169 67.9882812 146.062L68.2167969 146.483875zM78.1425781 154.4995L77.2285156 154.4995 77.2285156 153.620594C77.0410147 153.921377 76.7724627 154.169421 76.4228516 154.364735 76.0732404 154.560048 75.7050801 154.657704 75.3183594 154.657704 74.6191371 154.657704 74.0664083 154.346183 73.6601562 153.723133 73.2539042 153.100083 73.0507812 152.310052 73.0507812 151.353016 73.0507812 150.45848 73.2626932 149.717277 73.6865234 149.129383 74.1103537 148.54149 74.6718715 148.247547 75.3710938 148.247547 76.1406288 148.247547 76.7597633 148.560044 77.2285156 149.185047L77.2285156 146.231922 78.1425781 146.231922 78.1425781 154.4995zM77.2285156 152.63036L77.2285156 150.09325C76.7910134 149.390122 76.263675 149.038563 75.6464844 149.038563 75.1425756 149.038563 74.7441421 149.262194 74.4511719 149.709461 74.1582017 150.156729 74.0117188 150.722153 74.0117188 151.40575 74.0117188 152.108879 74.1494127 152.689928 74.4248047 153.148915 74.7001967 153.607901 75.0781226 153.837391 75.5585938 153.837391 75.7890637 153.837391 76.0214832 153.774892 76.2558594 153.649891 76.4902355 153.52489 76.7109365 153.337392 76.9179688 153.087391 77.125001 152.83739 77.2285156 152.685048 77.2285156 152.63036zM85.5195312 154.4995L84.6113281 154.4995C84.537109 154.253406 84.5 153.925284 84.5 153.515125 83.9804662 154.276848 83.273442 154.657704 82.3789062 154.657704 81.925779 154.657704 81.5263689 154.496572 81.1806641 154.174305 80.8349592 153.852038 80.6621094 153.437003 80.6621094 152.929188 80.6621094 152.628405 80.7226556 152.362783 80.84375 152.132313 80.9648444 151.901843 81.142577 151.707509 81.3769531 151.549305 81.6113293 151.391101 81.8964827 151.266103 82.2324219 151.174305 82.5683611 151.082508 82.9667946 151.019032 83.4277344 150.983875L84.453125 150.901844 84.453125 150.608875C84.453125 149.561995 83.9648486 149.038563 82.9882812 149.038563 82.7578113 149.038563 82.4658221 149.088367 82.1123047 149.187977 81.7587873 149.287587 81.4550794 149.40575 81.2011719 149.542469L80.9609375 148.886219C81.7929729 148.460436 82.5664027 148.247547 83.28125 148.247547 84.671882 148.247547 85.3671875 148.983868 85.3671875 150.456532L85.3671875 153.081532C85.3671875 153.612784 85.4179682 154.085436 85.5195312 154.4995zM84.453125 152.688954L84.453125 151.581532C83.6289021 151.655751 83.0634781 151.725086 82.7568359 151.78954 82.4501938 151.853993 82.1845714 151.974109 81.9599609 152.149891 81.7353504 152.325673 81.6230469 152.563952 81.6230469 152.864735 81.6230469 153.138174 81.718749 153.358875 81.9101562 153.526844 82.1015635 153.694814 82.3457016 153.778797 82.6425781 153.778797 82.9667985 153.778797 83.2890609 153.682119 83.609375 153.488758 83.9296891 153.295398 84.2109363 153.028799 84.453125 152.688954zM92.6269531 154.22411C92.0136688 154.505361 91.4101592 154.645985 90.8164062 154.645985 89.7265571 154.645985 89.1816406 154.069819 89.1816406 152.917469L89.1816406 149.185047 88.0097656 149.185047 88.0097656 148.394032 89.1816406 148.394032 89.1816406 146.72411 90.0722656 146.72411 90.0722656 148.394032 92.1464844 148.394032 92.1464844 149.185047 90.0722656 149.185047 90.0722656 152.677235C90.0722656 153.04833 90.1542961 153.336414 90.3183594 153.541493 90.4824227 153.746572 90.7050767 153.84911 90.9863281 153.84911 91.4863306 153.84911 91.9804663 153.737783 92.46875 153.515125L92.6269531 154.22411zM99.9511719 151.476063L95.7617188 151.476063C95.7617188 152.167473 95.9619121 152.73778 96.3623047 153.187 96.7626973 153.636221 97.2539033 153.860829 97.8359375 153.860829 98.3906278 153.860829 98.9628877 153.76122 99.5527344 153.562L99.7109375 154.294422C99.1718723 154.536611 98.5429723 154.657704 97.8242188 154.657704 96.9179642 154.657704 96.1875028 154.366691 95.6328125 153.784657 95.0781222 153.202623 94.8007812 152.417474 94.8007812 151.429188 94.8007812 150.460433 95.0498022 149.68798 95.5478516 149.111805 96.0459009 148.53563 96.6894492 148.247547 97.4785156 148.247547 98.1816441 148.247547 98.7695289 148.515123 99.2421875 149.050282 99.7148461 149.585441 99.9511719 150.298324 99.9511719 151.188954L99.9511719 151.476063zM98.9550781 150.731922C98.9550781 150.255357 98.8066421 149.853994 98.5097656 149.527821 98.2128891 149.201647 97.8808612 149.038563 97.5136719 149.038563 97.0410133 149.038563 96.6494156 149.194811 96.3388672 149.507313 96.0283188 149.819815 95.8554689 150.228014 95.8203125 150.731922L98.9550781 150.731922zM105.623047 147.526844C105.419921 147.503407 105.251954 147.4204 105.119141 147.277821 104.986327 147.135242 104.919922 146.970205 104.919922 146.782704 104.919922 146.583484 104.985351 146.415517 105.116211 146.278797 105.247071 146.142078 105.408202 146.073719 105.599609 146.073719 105.81836 146.073719 106.007812 146.162586 106.167969 146.340321 106.328126 146.518056 106.408203 146.733874 106.408203 146.987782 106.408203 147.749504 105.984379 148.345201 105.136719 148.774891L104.908203 148.353016C105.384768 148.11864 105.623047 147.843252 105.623047 147.526844zM103.478516 147.526844C103.271483 147.503407 103.101563 147.4204 102.96875 147.277821 102.835937 147.135242 102.769531 146.970205 102.769531 146.782704 102.769531 146.583484 102.83496 146.415517 102.96582 146.278797 103.09668 146.142078 103.259765 146.073719 103.455078 146.073719 103.673829 146.073719 103.862304 146.162586 104.020508 146.340321 104.178712 146.518056 104.257812 146.733874 104.257812 146.987782 104.257812 147.749504 103.833989 148.345201 102.986328 148.774891L102.757812 148.353016C103.238284 148.11864 103.478516 147.843252 103.478516 147.526844zM111.757812 148.306141C111.957032 148.306141 112.124999 148.373523 112.261719 148.50829 112.398438 148.643056 112.466797 148.808093 112.466797 149.003407 112.466797 149.19872 112.398438 149.363758 112.261719 149.498524 112.124999 149.63329 111.957032 149.700672 111.757812 149.700672 111.562499 149.700672 111.397462 149.63329 111.262695 149.498524 111.127929 149.363758 111.060547 149.19872 111.060547 149.003407 111.060547 148.808093 111.127929 148.643056 111.262695 148.50829 111.397462 148.373523 111.562499 148.306141 111.757812 148.306141zM111.757812 153.204579C111.957032 153.204579 112.124999 153.270984 112.261719 153.403797 112.398438 153.536611 112.466797 153.702625 112.466797 153.901844 112.466797 154.097158 112.398438 154.261219 112.261719 154.394032 112.124999 154.526845 111.957032 154.59325 111.757812 154.59325 111.562499 154.59325 111.397462 154.526845 111.262695 154.394032 111.127929 154.261219 111.060547 154.097158 111.060547 153.901844 111.060547 153.702625 111.127929 153.536611 111.262695 153.403797 111.397462 153.270984 111.562499 153.204579 111.757812 153.204579zM127.970703 146.483875C127.494138 146.718252 127.255859 146.99364 127.255859 147.310047 127.458985 147.333485 127.626952 147.416492 127.759766 147.559071 127.892579 147.70165 127.958984 147.866687 127.958984 148.054188 127.958984 148.253408 127.894532 148.421375 127.765625 148.558094 127.636718 148.694814 127.47461 148.763172 127.279297 148.763172 127.060546 148.763172 126.871095 148.674306 126.710938 148.496571 126.55078 148.318836 126.470703 148.103017 126.470703 147.84911 126.470703 147.087387 126.89648 146.49169 127.748047 146.062L127.970703 146.483875zM125.826172 146.483875C125.345701 146.718252 125.105469 146.99364 125.105469 147.310047 125.312501 147.333485 125.482421 147.416492 125.615234 147.559071 125.748048 147.70165 125.814453 147.866687 125.814453 148.054188 125.814453 148.253408 125.749024 148.421375 125.618164 148.558094 125.487304 148.694814 125.32422 148.763172 125.128906 148.763172 124.910155 148.763172 124.72168 148.674306 124.563477 148.496571 124.405273 148.318836 124.326172 148.103017 124.326172 147.84911 124.326172 147.087387 124.749996 146.49169 125.597656 146.062L125.826172 146.483875zM135.558594 154.4995L131.011719 154.4995 131.011719 153.802235C132.164068 152.517072 132.912108 151.655753 133.255859 151.21825 133.599611 150.780748 133.878905 150.321769 134.09375 149.841297 134.308595 149.360826 134.416016 148.882315 134.416016 148.40575 134.416016 147.944811 134.276369 147.581533 133.99707 147.315907 133.717772 147.05028 133.326174 146.917469 132.822266 146.917469 132.435545 146.917469 131.916019 147.036609 131.263672 147.274891L131.128906 146.448719C131.718753 146.198718 132.335934 146.073719 132.980469 146.073719 133.718754 146.073719 134.313474 146.281725 134.764648 146.697743 135.215823 147.11376 135.441406 147.669419 135.441406 148.364735 135.441406 148.860831 135.325196 149.353014 135.092773 149.841297 134.86035 150.329581 134.562502 150.798326 134.199219 151.247547 133.835936 151.696768 133.128912 152.501448 132.078125 153.66161L135.558594 153.66161 135.558594 154.4995zM140.597656 146.073719C141.472661 146.073719 142.145505 146.449692 142.616211 147.201649 143.086916 147.953606 143.322266 149.009259 143.322266 150.368641 143.322266 151.685054 143.093752 152.728989 142.636719 153.500477 142.179685 154.271965 141.500005 154.657704 140.597656 154.657704 139.726558 154.657704 139.05469 154.282707 138.582031 153.532704 138.109373 152.7827 137.873047 151.728023 137.873047 150.368641 137.873047 149.048322 138.102537 148.002434 138.561523 147.230946 139.02051 146.459458 139.699214 146.073719 140.597656 146.073719zM140.597656 153.813954C141.175784 153.813954 141.604491 153.539542 141.883789 152.990711 142.163087 152.441881 142.302734 151.567866 142.302734 150.368641 142.302734 149.16551 142.163087 148.291495 141.883789 147.746571 141.604491 147.201646 141.175784 146.929188 140.597656 146.929188 140.027341 146.929188 139.601564 147.208482 139.320312 147.767079 139.039061 148.325675 138.898438 149.192854 138.898438 150.368641 138.898438 151.560053 139.038085 152.432115 139.317383 152.984852 139.596681 153.537589 140.023435 153.813954 140.597656 153.813954zM140.574219 149.489735C140.820314 149.489735 141.028319 149.574695 141.198242 149.744618 141.368165 149.91454 141.453125 150.122546 141.453125 150.368641 141.453125 150.622549 141.367188 150.84032 141.195312 151.021961 141.023437 151.203603 140.816407 151.294422 140.574219 151.294422 140.335936 151.294422 140.131837 151.203603 139.961914 151.021961 139.791991 150.84032 139.707031 150.622549 139.707031 150.368641 139.707031 150.11864 139.790038 149.909658 139.956055 149.741688 140.122071 149.573718 140.328124 149.489735 140.574219 149.489735zM150.177734 154.4995L145.830078 154.4995 145.830078 153.66161 147.582031 153.66161 147.582031 147.239735 145.929688 148.065907 145.929688 147.104969 147.716797 146.185047 148.542969 146.185047 148.542969 153.66161 150.177734 153.66161 150.177734 154.4995zM155.84375 149.964344C156.406253 150.128408 156.842772 150.407702 157.15332 150.802235 157.463869 151.196768 157.619141 151.657701 157.619141 152.185047 157.619141 152.942864 157.368167 153.54442 156.866211 153.989735 156.364255 154.43505 155.746097 154.657704 155.011719 154.657704 154.242184 154.657704 153.610354 154.433096 153.116211 153.983875 152.622068 153.534655 152.375 152.938957 152.375 152.196766 152.375 151.673326 152.535155 151.212393 152.855469 150.813954 153.175783 150.415514 153.623044 150.132314 154.197266 149.964344 153.740232 149.847156 153.374025 149.621572 153.098633 149.287586 152.823241 148.9536 152.685547 148.579581 152.685547 148.165516 152.685547 147.634263 152.896482 147.152823 153.318359 146.72118 153.740236 146.289537 154.296872 146.073719 154.988281 146.073719 155.671878 146.073719 156.237302 146.288561 156.68457 146.71825 157.131838 147.14794 157.355469 147.630357 157.355469 148.165516 157.355469 148.567862 157.214845 148.937975 156.933594 149.275868 156.652342 149.61376 156.289065 149.84325 155.84375 149.964344zM154.988281 149.565907C155.007813 149.565907 155.101562 149.542469 155.269531 149.495594 155.437501 149.448719 155.581054 149.391102 155.700195 149.322743 155.819337 149.254383 155.929687 149.16747 156.03125 149.062 156.132813 148.956531 156.214843 148.832509 156.277344 148.68993 156.339844 148.547351 156.371094 148.388173 156.371094 148.212391 156.371094 147.837389 156.236329 147.525869 155.966797 147.277821 155.697264 147.029773 155.371096 146.90575 154.988281 146.90575 154.617186 146.90575 154.298829 147.032702 154.033203 147.28661 153.767577 147.540517 153.634766 147.849108 153.634766 148.212391 153.634766 148.442861 153.682617 148.644031 153.77832 148.815907 153.874024 148.987783 153.993163 149.126453 154.135742 149.231922 154.278321 149.337392 154.442382 149.419422 154.62793 149.478016 154.813477 149.53661 154.933593 149.565907 154.988281 149.565907zM154.988281 150.386219C153.917963 150.698721 153.382812 151.286606 153.382812 152.149891 153.382812 152.6538 153.54492 153.057116 153.869141 153.359852 154.193361 153.662588 154.574217 153.813954 155.011719 153.813954 155.464846 153.813954 155.846678 153.664541 156.157227 153.365711 156.467775 153.066882 156.623047 152.661612 156.623047 152.149891 156.623047 151.76317 156.515626 151.416494 156.300781 151.109852 156.085936 150.80321 155.648441 150.562001 154.988281 150.386219zM163.894531 151.645985L160.414062 151.645985 160.414062 150.75536 163.894531 150.75536 163.894531 151.645985zM169.402344 146.073719C170.277348 146.073719 170.950193 146.449692 171.420898 147.201649 171.891604 147.953606 172.126953 149.009259 172.126953 150.368641 172.126953 151.685054 171.89844 152.728989 171.441406 153.500477 170.984373 154.271965 170.304692 154.657704 169.402344 154.657704 168.531246 154.657704 167.859377 154.282707 167.386719 153.532704 166.91406 152.7827 166.677734 151.728023 166.677734 150.368641 166.677734 149.048322 166.907224 148.002434 167.366211 147.230946 167.825198 146.459458 168.503902 146.073719 169.402344 146.073719zM169.402344 153.813954C169.980472 153.813954 170.409178 153.539542 170.688477 152.990711 170.967775 152.441881 171.107422 151.567866 171.107422 150.368641 171.107422 149.16551 170.967775 148.291495 170.688477 147.746571 170.409178 147.201646 169.980472 146.929188 169.402344 146.929188 168.832028 146.929188 168.406251 147.208482 168.125 147.767079 167.843749 148.325675 167.703125 149.192854 167.703125 150.368641 167.703125 151.560053 167.842772 152.432115 168.12207 152.984852 168.401369 153.537589 168.828122 153.813954 169.402344 153.813954zM169.378906 149.489735C169.625001 149.489735 169.833007 149.574695 170.00293 149.744618 170.172852 149.91454 170.257812 150.122546 170.257812 150.368641 170.257812 150.622549 170.171876 150.84032 170 151.021961 169.828124 151.203603 169.621095 151.294422 169.378906 151.294422 169.140624 151.294422 168.936524 151.203603 168.766602 151.021961 168.596679 150.84032 168.511719 150.622549 168.511719 150.368641 168.511719 150.11864 168.594726 149.909658 168.760742 149.741688 168.926759 149.573718 169.132811 149.489735 169.378906 149.489735zM178.765625 154.4995L174.21875 154.4995 174.21875 153.802235C175.3711 152.517072 176.119139 151.655753 176.462891 151.21825 176.806642 150.780748 177.085936 150.321769 177.300781 149.841297 177.515626 149.360826 177.623047 148.882315 177.623047 148.40575 177.623047 147.944811 177.4834 147.581533 177.204102 147.315907 176.924803 147.05028 176.533206 146.917469 176.029297 146.917469 175.642576 146.917469 175.12305 147.036609 174.470703 147.274891L174.335938 146.448719C174.925784 146.198718 175.542966 146.073719 176.1875 146.073719 176.925785 146.073719 177.520506 146.281725 177.97168 146.697743 178.422854 147.11376 178.648438 147.669419 178.648438 148.364735 178.648438 148.860831 178.532228 149.353014 178.299805 149.841297 178.067382 150.329581 177.769533 150.798326 177.40625 151.247547 177.042967 151.696768 176.335943 152.501448 175.285156 153.66161L178.765625 153.66161 178.765625 154.4995zM185.498047 151.645985L182.017578 151.645985 182.017578 150.75536 185.498047 150.75536 185.498047 151.645985zM191.005859 146.073719C191.880864 146.073719 192.553709 146.449692 193.024414 147.201649 193.49512 147.953606 193.730469 149.009259 193.730469 150.368641 193.730469 151.685054 193.501955 152.728989 193.044922 153.500477 192.587888 154.271965 191.908208 154.657704 191.005859 154.657704 190.134761 154.657704 189.462893 154.282707 188.990234 153.532704 188.517576 152.7827 188.28125 151.728023 188.28125 150.368641 188.28125 149.048322 188.51074 148.002434 188.969727 147.230946 189.428713 146.459458 190.107417 146.073719 191.005859 146.073719zM191.005859 153.813954C191.583987 153.813954 192.012694 153.539542 192.291992 152.990711 192.57129 152.441881 192.710938 151.567866 192.710938 150.368641 192.710938 149.16551 192.57129 148.291495 192.291992 147.746571 192.012694 147.201646 191.583987 146.929188 191.005859 146.929188 190.435544 146.929188 190.009767 147.208482 189.728516 147.767079 189.447264 148.325675 189.306641 149.192854 189.306641 150.368641 189.306641 151.560053 189.446288 152.432115 189.725586 152.984852 190.004884 153.537589 190.431638 153.813954 191.005859 153.813954zM190.982422 149.489735C191.228517 149.489735 191.436523 149.574695 191.606445 149.744618 191.776368 149.91454 191.861328 150.122546 191.861328 150.368641 191.861328 150.622549 191.775391 150.84032 191.603516 151.021961 191.43164 151.203603 191.224611 151.294422 190.982422 151.294422 190.744139 151.294422 190.54004 151.203603 190.370117 151.021961 190.200194 150.84032 190.115234 150.622549 190.115234 150.368641 190.115234 150.11864 190.198241 149.909658 190.364258 149.741688 190.530274 149.573718 190.736327 149.489735 190.982422 149.489735zM200.585938 154.4995L196.238281 154.4995 196.238281 153.66161 197.990234 153.66161 197.990234 147.239735 196.337891 148.065907 196.337891 147.104969 198.125 146.185047 198.951172 146.185047 198.951172 153.66161 200.585938 153.66161 200.585938 154.4995zM206.439453 147.526844C206.236327 147.503407 206.06836 147.4204 205.935547 147.277821 205.802734 147.135242 205.736328 146.970205 205.736328 146.782704 205.736328 146.583484 205.801757 146.415517 205.932617 146.278797 206.063477 146.142078 206.224608 146.073719 206.416016 146.073719 206.634767 146.073719 206.824218 146.162586 206.984375 146.340321 207.144532 146.518056 207.224609 146.733874 207.224609 146.987782 207.224609 147.749504 206.800785 148.345201 205.953125 148.774891L205.724609 148.353016C206.201174 148.11864 206.439453 147.843252 206.439453 147.526844zM204.294922 147.526844C204.08789 147.503407 203.917969 147.4204 203.785156 147.277821 203.652343 147.135242 203.585938 146.970205 203.585938 146.782704 203.585938 146.583484 203.651367 146.415517 203.782227 146.278797 203.913087 146.142078 204.076171 146.073719 204.271484 146.073719 204.490235 146.073719 204.67871 146.162586 204.836914 146.340321 204.995118 146.518056 205.074219 146.733874 205.074219 146.987782 205.074219 147.749504 204.650395 148.345201 203.802734 148.774891L203.574219 148.353016C204.05469 148.11864 204.294922 147.843252 204.294922 147.526844zM212.632812 154.657704C212.429686 154.634266 212.261719 154.550282 212.128906 154.40575 211.996093 154.261219 211.929688 154.097158 211.929688 153.913563 211.929688 153.714343 211.99414 153.546376 212.123047 153.409657 212.251954 153.272937 212.414062 153.204579 212.609375 153.204579 212.828126 153.204579 213.017577 153.293445 213.177734 153.47118 213.337891 153.648915 213.417969 153.86278 213.417969 154.112782 213.417969 154.878411 212.992192 155.476061 212.140625 155.90575L211.917969 155.483875C212.394534 155.249499 212.632812 154.974111 212.632812 154.657704zM70.3613281 160.483875C69.8847632 160.718252 69.6464844 160.99364 69.6464844 161.310047 69.8496104 161.333485 70.0175775 161.416492 70.1503906 161.559071 70.2832038 161.70165 70.3496094 161.866687 70.3496094 162.054188 70.3496094 162.253408 70.2851569 162.421375 70.15625 162.558094 70.0273431 162.694814 69.8652354 162.763172 69.6699219 162.763172 69.4511708 162.763172 69.2617196 162.674306 69.1015625 162.496571 68.9414054 162.318836 68.8613281 162.103017 68.8613281 161.84911 68.8613281 161.087387 69.2871051 160.49169 70.1386719 160.062L70.3613281 160.483875zM68.2167969 160.483875C67.7363257 160.718252 67.4960938 160.99364 67.4960938 161.310047 67.703126 161.333485 67.8730462 161.416492 68.0058594 161.559071 68.1386725 161.70165 68.2050781 161.866687 68.2050781 162.054188 68.2050781 162.253408 68.1396491 162.421375 68.0087891 162.558094 67.877929 162.694814 67.7148447 162.763172 67.5195312 162.763172 67.3007802 162.763172 67.1123055 162.674306 66.9541016 162.496571 66.7958976 162.318836 66.7167969 162.103017 66.7167969 161.84911 66.7167969 161.087387 67.1406208 160.49169 67.9882812 160.062L68.2167969 160.483875zM76.1972656 160.085438C76.3691415 160.085438 76.5156244 160.146961 76.6367188 160.270008 76.7578131 160.393056 76.8183594 160.540515 76.8183594 160.712391 76.8183594 160.89208 76.7587897 161.042469 76.6396484 161.163563 76.5205072 161.284657 76.3730478 161.345204 76.1972656 161.345204 76.0371086 161.345204 75.8955084 161.281728 75.7724609 161.154774 75.6494134 161.02782 75.5878906 160.880361 75.5878906 160.712391 75.5878906 160.544422 75.6494134 160.397939 75.7724609 160.272938 75.8955084 160.147937 76.0371086 160.085438 76.1972656 160.085438zM76.6425781 168.4995L75.7285156 168.4995 75.7285156 163.185047 73.9296875 163.185047 73.9296875 162.394032 76.6425781 162.394032 76.6425781 168.4995zM85.3671875 168.4995L84.453125 168.4995 84.453125 164.585438C84.453125 164.042467 84.3662118 163.648916 84.1923828 163.404774 84.0185538 163.160632 83.7460956 163.038563 83.375 163.038563 82.8164035 163.038563 82.2168001 163.386216 81.5761719 164.081532L81.5761719 168.4995 80.6621094 168.4995 80.6621094 162.394032 81.5761719 162.394032 81.5761719 163.290516C82.2324252 162.5952 82.9238245 162.247547 83.6503906 162.247547 84.7949276 162.247547 85.3671875 162.938947 85.3671875 164.321766L85.3671875 168.4995zM93.8046875 171.112782L86.6035156 171.112782 86.6035156 170.345204 93.8046875 170.345204 93.8046875 171.112782zM99.7460938 168.294422C99.2148411 168.536611 98.6308626 168.657704 97.9941406 168.657704 97.0331983 168.657704 96.2666044 168.365714 95.6943359 167.781727 95.1220675 167.19774 94.8359375 166.42138 94.8359375 165.452625 94.8359375 164.483871 95.1240206 163.707511 95.7001953 163.123524 96.2763701 162.539537 97.0331984 162.247547 97.9707031 162.247547 98.5839874 162.247547 99.167966 162.354968 99.7226562 162.569813L99.4824219 163.325672C98.9277316 163.134265 98.4277366 163.038563 97.9824219 163.038563 97.3105435 163.038563 96.7783223 163.255358 96.3857422 163.688954 95.9931621 164.12255 95.796875 164.710434 95.796875 165.452625 95.796875 166.132316 95.999998 166.7036 96.40625 167.166493 96.812502 167.629386 97.3417936 167.860829 97.9941406 167.860829 98.5097682 167.860829 99.0410129 167.76122 99.5878906 167.562L99.7460938 168.294422zM104.603516 162.247547C105.443364 162.247547 106.111326 162.540513 106.607422 163.126454 107.103518 163.712394 107.351562 164.483871 107.351562 165.440907 107.351562 166.405755 107.103518 167.183091 106.607422 167.772938 106.111326 168.362785 105.443364 168.657704 104.603516 168.657704 103.759761 168.657704 103.090823 168.363761 102.59668 167.775868 102.102537 167.187974 101.855469 166.409662 101.855469 165.440907 101.855469 164.479964 102.103513 163.707511 102.599609 163.123524 103.095706 162.539537 103.763668 162.247547 104.603516 162.247547zM104.603516 167.860829C105.158206 167.860829 105.595702 167.626456 105.916016 167.157704 106.23633 166.688951 106.396484 166.120598 106.396484 165.452625 106.396484 164.749497 106.238283 164.171378 105.921875 163.71825 105.605467 163.265123 105.166018 163.038563 104.603516 163.038563 104.037107 163.038563 103.597658 163.262194 103.285156 163.709461 102.972655 164.156729 102.816406 164.737778 102.816406 165.452625 102.816406 166.132316 102.974608 166.7036 103.291016 167.166493 103.607423 167.629386 104.044919 167.860829 104.603516 167.860829zM114.160156 168.4995L113.246094 168.4995 113.246094 167.597157C112.58984 168.296379 111.898441 168.645985 111.171875 168.645985 110.027338 168.645985 109.455078 167.952632 109.455078 166.565907L109.455078 162.394032 110.369141 162.394032 110.369141 166.302235C110.369141 166.821769 110.451171 167.20946 110.615234 167.465321 110.779298 167.721181 111.056639 167.84911 111.447266 167.84911 112.005862 167.84911 112.605466 167.501457 113.246094 166.806141L113.246094 162.394032 114.160156 162.394032 114.160156 168.4995zM121.373047 168.4995L120.458984 168.4995 120.458984 164.585438C120.458984 164.042467 120.372071 163.648916 120.198242 163.404774 120.024413 163.160632 119.751955 163.038563 119.380859 163.038563 118.822263 163.038563 118.222659 163.386216 117.582031 164.081532L117.582031 168.4995 116.667969 168.4995 116.667969 162.394032 117.582031 162.394032 117.582031 163.290516C118.238285 162.5952 118.929684 162.247547 119.65625 162.247547 120.800787 162.247547 121.373047 162.938947 121.373047 164.321766L121.373047 168.4995zM128.632812 168.22411C128.019528 168.505361 127.416019 168.645985 126.822266 168.645985 125.732416 168.645985 125.1875 168.069819 125.1875 166.917469L125.1875 163.185047 124.015625 163.185047 124.015625 162.394032 125.1875 162.394032 125.1875 160.72411 126.078125 160.72411 126.078125 162.394032 128.152344 162.394032 128.152344 163.185047 126.078125 163.185047 126.078125 166.677235C126.078125 167.04833 126.160155 167.336414 126.324219 167.541493 126.488282 167.746572 126.710936 167.84911 126.992188 167.84911 127.49219 167.84911 127.986326 167.737783 128.474609 167.515125L128.632812 168.22411zM134.427734 161.526844C134.224608 161.503407 134.056641 161.4204 133.923828 161.277821 133.791015 161.135242 133.724609 160.970205 133.724609 160.782704 133.724609 160.583484 133.790038 160.415517 133.920898 160.278797 134.051758 160.142078 134.21289 160.073719 134.404297 160.073719 134.623048 160.073719 134.812499 160.162586 134.972656 160.340321 135.132813 160.518056 135.212891 160.733874 135.212891 160.987782 135.212891 161.749504 134.789067 162.345201 133.941406 162.774891L133.712891 162.353016C134.189456 162.11864 134.427734 161.843252 134.427734 161.526844zM132.283203 161.526844C132.076171 161.503407 131.906251 161.4204 131.773438 161.277821 131.640624 161.135242 131.574219 160.970205 131.574219 160.782704 131.574219 160.583484 131.639648 160.415517 131.770508 160.278797 131.901368 160.142078 132.064452 160.073719 132.259766 160.073719 132.478517 160.073719 132.666991 160.162586 132.825195 160.340321 132.983399 160.518056 133.0625 160.733874 133.0625 160.987782 133.0625 161.749504 132.638676 162.345201 131.791016 162.774891L131.5625 162.353016C132.042971 162.11864 132.283203 161.843252 132.283203 161.526844zM140.5625 162.306141C140.76172 162.306141 140.929687 162.373523 141.066406 162.50829 141.203126 162.643056 141.271484 162.808093 141.271484 163.003407 141.271484 163.19872 141.203126 163.363758 141.066406 163.498524 140.929687 163.63329 140.76172 163.700672 140.5625 163.700672 140.367187 163.700672 140.202149 163.63329 140.067383 163.498524 139.932617 163.363758 139.865234 163.19872 139.865234 163.003407 139.865234 162.808093 139.932617 162.643056 140.067383 162.50829 140.202149 162.373523 140.367187 162.306141 140.5625 162.306141zM140.5625 167.204579C140.76172 167.204579 140.929687 167.270984 141.066406 167.403797 141.203126 167.536611 141.271484 167.702625 141.271484 167.901844 141.271484 168.097158 141.203126 168.261219 141.066406 168.394032 140.929687 168.526845 140.76172 168.59325 140.5625 168.59325 140.367187 168.59325 140.202149 168.526845 140.067383 168.394032 139.932617 168.261219 139.865234 168.097158 139.865234 167.901844 139.865234 167.702625 139.932617 167.536611 140.067383 167.403797 140.202149 167.270984 140.367187 167.204579 140.5625 167.204579zM157.378906 168.4995L153.03125 168.4995 153.03125 167.66161 154.783203 167.66161 154.783203 161.239735 153.130859 162.065907 153.130859 161.104969 154.917969 160.185047 155.744141 160.185047 155.744141 167.66161 157.378906 167.66161 157.378906 168.4995zM164.902344 166.589344L163.882812 166.589344 163.882812 168.4995 162.921875 168.4995 162.921875 166.589344 159.324219 166.589344 159.324219 165.856922 162.587891 160.231922 163.882812 160.231922 163.882812 165.751454 164.902344 165.751454 164.902344 166.589344zM162.921875 165.751454L162.921875 161.181141 160.296875 165.751454 162.921875 165.751454zM167.9375 164.19286C168.453128 163.774889 169.013669 163.565907 169.619141 163.565907 170.318363 163.565907 170.901365 163.789537 171.368164 164.236805 171.834963 164.684073 172.068359 165.261216 172.068359 165.96825 172.068359 166.745598 171.86133 167.38817 171.447266 167.895985 171.033201 168.4038 170.480472 168.657704 169.789062 168.657704 168.906246 168.657704 168.207034 168.252434 167.691406 167.441883 167.175779 166.631332 166.917969 165.640131 166.917969 164.46825 166.917969 163.218244 167.186521 162.173333 167.723633 161.333485 168.260745 160.493637 168.996089 160.073719 169.929688 160.073719 170.574222 160.073719 171.130857 160.169421 171.599609 160.360829L171.447266 161.216297C170.904294 161.017078 170.408205 160.917469 169.958984 160.917469 169.322262 160.917469 168.826174 161.222154 168.470703 161.831532 168.115233 162.44091 167.9375 163.228011 167.9375 164.19286zM167.966797 165.019032C167.966797 165.726067 168.132811 166.368638 168.464844 166.946766 168.796877 167.524894 169.214841 167.813954 169.71875 167.813954 170.144533 167.813954 170.472655 167.657705 170.703125 167.345204 170.933595 167.032702 171.048828 166.601066 171.048828 166.050282 171.048828 165.542467 170.921876 165.14208 170.667969 164.84911 170.414061 164.55614 170.056643 164.409657 169.595703 164.409657 168.998044 164.409657 168.455081 164.61278 167.966797 165.019032zM56.4765625 179.845204C56.0546854 179.845204 55.7470713 179.988757 55.5537109 180.275868 55.3603506 180.562978 55.2636719 181.071762 55.2636719 181.802235L55.2636719 182.364735C55.2636719 183.185051 55.1406262 183.746569 54.8945312 184.049305 54.6484363 184.352041 54.2441434 184.503407 53.6816406 184.503407L53.2128906 184.503407 53.2128906 183.735829 53.3945312 183.735829C53.7578143 183.735829 54.0107415 183.657704 54.1533203 183.501454 54.2958992 183.345203 54.3671875 182.97216 54.3671875 182.382313L54.3671875 182.007313C54.3671875 181.198715 54.4609366 180.603018 54.6484375 180.220204 54.8359384 179.837389 55.1542946 179.552236 55.6035156 179.364735 55.1542946 179.18114 54.8359384 178.89794 54.6484375 178.515125 54.4609366 178.132311 54.3671875 177.536614 54.3671875 176.728016L54.3671875 176.353016C54.3671875 175.763169 54.2958992 175.390126 54.1533203 175.233875 54.0107415 175.077625 53.7578143 174.9995 53.3945312 174.9995L53.2128906 174.9995 53.2128906 174.231922 53.6816406 174.231922C54.2441434 174.231922 54.6484363 174.383288 54.8945312 174.686024 55.1406262 174.98876 55.2636719 175.548325 55.2636719 176.364735L55.2636719 176.933094C55.2636719 177.593254 55.3496085 178.08446 55.5214844 178.406727 55.6933602 178.728994 56.0117164 178.890125 56.4765625 178.890125L56.4765625 179.845204zM62.5761719 184.058094L60.2382812 184.058094 60.2382812 183.267079 61.6621094 183.267079 61.6621094 175.022938 60.2382812 175.022938 60.2382812 174.231922 62.5761719 174.231922 62.5761719 184.058094zM42.0742188 193.845204C41.6523416 193.845204 41.3447275 193.988757 41.1513672 194.275868 40.9580068 194.562978 40.8613281 195.071762 40.8613281 195.802235L40.8613281 196.364735C40.8613281 197.185051 40.7382825 197.746569 40.4921875 198.049305 40.2460925 198.352041 39.8417997 198.503407 39.2792969 198.503407L38.8105469 198.503407 38.8105469 197.735829 38.9921875 197.735829C39.3554706 197.735829 39.6083977 197.657704 39.7509766 197.501454 39.8935554 197.345203 39.9648438 196.97216 39.9648438 196.382313L39.9648438 196.007313C39.9648438 195.198715 40.0585928 194.603018 40.2460938 194.220204 40.4335947 193.837389 40.7519509 193.552236 41.2011719 193.364735 40.7519509 193.18114 40.4335947 192.89794 40.2460938 192.515125 40.0585928 192.132311 39.9648438 191.536614 39.9648438 190.728016L39.9648438 190.353016C39.9648438 189.763169 39.8935554 189.390126 39.7509766 189.233875 39.6083977 189.077625 39.3554706 188.9995 38.9921875 188.9995L38.8105469 188.9995 38.8105469 188.231922 39.2792969 188.231922C39.8417997 188.231922 40.2460925 188.383288 40.4921875 188.686024 40.7382825 188.98876 40.8613281 189.548325 40.8613281 190.364735L40.8613281 190.933094C40.8613281 191.593254 40.9472648 192.08446 41.1191406 192.406727 41.2910165 192.728994 41.6093727 192.890125 42.0742188 192.890125L42.0742188 193.845204zM42.9414062 35.901482C42.4101536 36.1436707 41.8261751 36.2647632 41.1894531 36.2647632 40.2285108 36.2647632 39.4619169 35.972774 38.8896484 35.3887867 38.31738 34.8047994 38.03125 34.02844 38.03125 33.0596851 38.03125 32.0909303 38.3193331 31.3145708 38.8955078 30.7305835 39.4716826 30.1465962 40.2285109 29.854607 41.1660156 29.854607 41.7792999 29.854607 42.3632785 29.9620278 42.9179688 30.1768726L42.6777344 30.932732C42.1230441 30.7413248 41.6230491 30.6456226 41.1777344 30.6456226 40.505856 30.6456226 39.9736348 30.8624173 39.5810547 31.2960132 39.1884746 31.7296091 38.9921875 32.3174939 38.9921875 33.0596851 38.9921875 33.739376 39.1953105 34.3106594 39.6015625 34.7735523 40.0078145 35.2364452 40.5371061 35.4678882 41.1894531 35.4678882 41.7050807 35.4678882 42.2363254 35.3682799 42.7832031 35.1690601L42.9414062 35.901482zM50.1542969 36.1065601L49.2402344 36.1065601 49.2402344 35.2042164C48.5839811 35.9034386 47.8925818 36.2530445 47.1660156 36.2530445 46.0214787 36.2530445 45.4492188 35.559692 45.4492188 34.1729664L45.4492188 30.0010914 46.3632812 30.0010914 46.3632812 33.9092945C46.3632812 34.4288283 46.4453117 34.8165198 46.609375 35.0723804 46.7734383 35.3282411 47.0507793 35.4561695 47.4414062 35.4561695 48.0000028 35.4561695 48.5996062 35.1085167 49.2402344 34.4132007L49.2402344 30.0010914 50.1542969 30.0010914 50.1542969 36.1065601zM57.4609375 30.1651539L57.0917969 31.0440601C56.6894511 30.868278 56.3417983 30.7803882 56.0488281 30.7803882 55.7792955 30.7803882 55.5156263 30.8575359 55.2578125 31.0118335 54.9999987 31.1661312 54.7626964 31.3868321 54.5458984 31.6739429 54.3291005 31.9610537 54.2207031 32.1221849 54.2207031 32.1573414L54.2207031 36.1065601 53.3125 36.1065601 53.3125 30.0010914 54.2207031 30.0010914 54.2207031 31.2374195C54.7089868 30.3155399 55.341793 29.854607 56.1191406 29.854607 56.5800804 29.854607 57.0273416 29.9581216 57.4609375 30.1651539zM64.1230469 36.1065601L61.6269531 36.1065601 61.6269531 28.6299976 60.0332031 28.6299976 60.0332031 27.838982 62.5410156 27.838982 62.5410156 35.3155445 64.1230469 35.3155445 64.1230469 36.1065601zM78.9707031 36.1065601L78.0566406 36.1065601 78.0566406 32.1924976C78.0566406 31.6495261 77.9697274 31.2559754 77.7958984 31.0118335 77.6220694 30.7676917 77.3496112 30.6456226 76.9785156 30.6456226 76.4199191 30.6456226 75.8203157 30.9932754 75.1796875 31.6885914L75.1796875 36.1065601 74.265625 36.1065601 74.265625 27.838982 75.1796875 27.838982 75.1796875 30.8975757C75.8359408 30.2022598 76.5273401 29.854607 77.2539062 29.854607 78.3984432 29.854607 78.9707031 30.5460063 78.9707031 31.9288257L78.9707031 36.1065601zM86.2304688 35.8311695C85.6171844 36.1124209 85.0136748 36.2530445 84.4199219 36.2530445 83.3300727 36.2530445 82.7851562 35.6768784 82.7851562 34.5245289L82.7851562 30.792107 81.6132812 30.792107 81.6132812 30.0010914 82.7851562 30.0010914 82.7851562 28.3311695 83.6757812 28.3311695 83.6757812 30.0010914 85.75 30.0010914 85.75 30.792107 83.6757812 30.792107 83.6757812 34.2842945C83.6757812 34.6553901 83.7578117 34.9434731 83.921875 35.1485523 84.0859383 35.3536314 84.3085923 35.4561695 84.5898438 35.4561695 85.0898462 35.4561695 85.5839819 35.3448425 86.0722656 35.1221851L86.2304688 35.8311695zM93.4316406 35.8311695C92.8183563 36.1124209 92.2148467 36.2530445 91.6210938 36.2530445 90.5312446 36.2530445 89.9863281 35.6768784 89.9863281 34.5245289L89.9863281 30.792107 88.8144531 30.792107 88.8144531 30.0010914 89.9863281 30.0010914 89.9863281 28.3311695 90.8769531 28.3311695 90.8769531 30.0010914 92.9511719 30.0010914 92.9511719 30.792107 90.8769531 30.792107 90.8769531 34.2842945C90.8769531 34.6553901 90.9589836 34.9434731 91.1230469 35.1485523 91.2871102 35.3536314 91.5097642 35.4561695 91.7910156 35.4561695 92.2910181 35.4561695 92.7851538 35.3448425 93.2734375 35.1221851L93.4316406 35.8311695zM96.7832031 30.792107C96.9863291 30.5108556 97.2607405 30.2842953 97.6064453 30.1124195 97.9521502 29.9405436 98.3164043 29.854607 98.6992188 29.854607 99.4023473 29.854607 99.9540996 30.1446431 100.354492 30.7247242 100.754885 31.3048052 100.955078 32.0596805 100.955078 32.9893726 100.955078 33.9268773 100.745119 34.7071429 100.325195 35.3301929 99.9052713 35.9532429 99.3398473 36.2647632 98.6289062 36.2647632 98.2499981 36.2647632 97.8955095 36.1700376 97.5654297 35.9805835 97.2353499 35.7911295 96.9746103 35.5401554 96.7832031 35.2276539L96.7832031 38.5206226 95.8691406 38.5206226 95.8691406 30.0010914 96.7832031 30.0010914 96.7832031 30.792107zM96.7832031 31.7003101L96.7832031 34.2374195C96.955079 34.5811712 97.1874985 34.8682777 97.4804688 35.0987476 97.773439 35.3292175 98.0761703 35.4444507 98.3886719 35.4444507 98.8808618 35.4444507 99.2724595 35.2139843 99.5634766 34.7530445 99.8544936 34.2921047 100 33.7198448 100 33.0362476 100 32.3331191 99.8613295 31.7589061 99.5839844 31.3135914 99.3066392 30.8682766 98.9199244 30.6456226 98.4238281 30.6456226 97.7792937 30.6456226 97.2324241 30.9971816 96.7832031 31.7003101zM107.136719 30.8741382C106.624997 30.7061686 106.14258 30.6221851 105.689453 30.6221851 105.193357 30.6221851 104.800783 30.7051921 104.511719 30.8712085 104.222655 31.037225 104.078125 31.2589025 104.078125 31.5362476 104.078125 31.7120297 104.144531 31.8653485 104.277344 31.9962085 104.410157 32.1270686 104.675779 32.2491377 105.074219 32.3624195L105.947266 32.6143726C106.349611 32.7276544 106.677733 32.8633953 106.931641 33.0215992 107.185548 33.1798031 107.375976 33.3712074 107.50293 33.5958179 107.629883 33.8204284 107.693359 34.081168 107.693359 34.3780445 107.693359 34.9600786 107.449221 35.420035 106.960938 35.7579273 106.472654 36.0958196 105.851566 36.2647632 105.097656 36.2647632 104.347653 36.2647632 103.728518 36.1514831 103.240234 35.9249195L103.416016 35.1339039C103.927737 35.3760926 104.47656 35.4971851 105.0625 35.4971851 105.570315 35.4971851 105.983397 35.4024595 106.301758 35.2130054 106.620119 35.0235513 106.779297 34.7725773 106.779297 34.4600757 106.779297 34.2491372 106.700196 34.0606625 106.541992 33.894646 106.383788 33.7286296 106.011722 33.5557798 105.425781 33.3760914 104.953123 33.2315594 104.60547 33.123162 104.382812 33.050896 104.160155 32.9786301 103.953126 32.8721858 103.761719 32.7315601 103.570312 32.5909344 103.424805 32.4229673 103.325195 32.2276539 103.225585 32.0323404 103.175781 31.8135926 103.175781 31.5714039 103.175781 31.0440575 103.406248 30.6260929 103.867188 30.3174976 104.328127 30.0089023 104.939449 29.854607 105.701172 29.854607 106.193362 29.854607 106.740231 29.9385905 107.341797 30.1065601L107.136719 30.8741382zM112.5625 29.9132007C112.76172 29.9132007 112.929687 29.9805829 113.066406 30.1153492 113.203126 30.2501155 113.271484 30.4151529 113.271484 30.6104664 113.271484 30.8057798 113.203126 30.9708172 113.066406 31.1055835 112.929687 31.2403498 112.76172 31.307732 112.5625 31.307732 112.367187 31.307732 112.202149 31.2403498 112.067383 31.1055835 111.932617 30.9708172 111.865234 30.8057798 111.865234 30.6104664 111.865234 30.4151529 111.932617 30.2501155 112.067383 30.1153492 112.202149 29.9805829 112.367187 29.9132007 112.5625 29.9132007zM112.5625 34.8116382C112.76172 34.8116382 112.929687 34.8780438 113.066406 35.010857 113.203126 35.1436701 113.271484 35.3096841 113.271484 35.5089039 113.271484 35.7042173 113.203126 35.8682782 113.066406 36.0010914 112.929687 36.1339045 112.76172 36.2003101 112.5625 36.2003101 112.367187 36.2003101 112.202149 36.1339045 112.067383 36.0010914 111.932617 35.8682782 111.865234 35.7042173 111.865234 35.5089039 111.865234 35.3096841 111.932617 35.1436701 112.067383 35.010857 112.202149 34.8780438 112.367187 34.8116382 112.5625 34.8116382zM121.925781 27.6807789L118.333984 36.2647632 117.472656 36.2647632 121.046875 27.6807789 121.925781 27.6807789zM129.126953 27.6807789L125.535156 36.2647632 124.673828 36.2647632 128.248047 27.6807789 129.126953 27.6807789zM136.732422 36.1065601L135.824219 36.1065601C135.75 35.8604651 135.712891 35.5323434 135.712891 35.1221851 135.193357 35.8839077 134.486333 36.2647632 133.591797 36.2647632 133.13867 36.2647632 132.73926 36.103632 132.393555 35.7813648 132.04785 35.4590976 131.875 35.0440626 131.875 34.5362476 131.875 34.2354649 131.935546 33.9698425 132.056641 33.7393726 132.177735 33.5089027 132.355468 33.3145687 132.589844 33.1563648 132.82422 32.9981609 133.109373 32.8731621 133.445312 32.7813648 133.781252 32.6895675 134.179685 32.6260915 134.640625 32.5909351L135.666016 32.5089039 135.666016 32.2159351C135.666016 31.1690549 135.177739 30.6456226 134.201172 30.6456226 133.970702 30.6456226 133.678713 30.6954268 133.325195 30.7950367 132.971678 30.8946465 132.66797 31.0128094 132.414062 31.1495289L132.173828 30.4932789C133.005864 30.0674955 133.779293 29.854607 134.494141 29.854607 135.884773 29.854607 136.580078 30.5909277 136.580078 32.0635914L136.580078 34.6885914C136.580078 35.219844 136.630859 35.6924955 136.732422 36.1065601zM135.666016 34.2960132L135.666016 33.1885914C134.841793 33.2628105 134.276369 33.3321457 133.969727 33.3965992 133.663084 33.4610526 133.397462 33.5811686 133.172852 33.7569507 132.948241 33.9327329 132.835938 34.1710117 132.835938 34.4717945 132.835938 34.7452333 132.93164 34.9659343 133.123047 35.1339039 133.314454 35.3018734 133.558592 35.385857 133.855469 35.385857 134.179689 35.385857 134.501952 35.2891783 134.822266 35.0958179 135.14258 34.9024576 135.423827 34.6358587 135.666016 34.2960132zM139.990234 30.792107C140.19336 30.5108556 140.467772 30.2842953 140.813477 30.1124195 141.159181 29.9405436 141.523436 29.854607 141.90625 29.854607 142.609379 29.854607 143.161131 30.1446431 143.561523 30.7247242 143.961916 31.3048052 144.162109 32.0596805 144.162109 32.9893726 144.162109 33.9268773 143.952151 34.7071429 143.532227 35.3301929 143.112303 35.9532429 142.546879 36.2647632 141.835938 36.2647632 141.457029 36.2647632 141.102541 36.1700376 140.772461 35.9805835 140.442381 35.7911295 140.181642 35.5401554 139.990234 35.2276539L139.990234 38.5206226 139.076172 38.5206226 139.076172 30.0010914 139.990234 30.0010914 139.990234 30.792107zM139.990234 31.7003101L139.990234 34.2374195C140.16211 34.5811712 140.39453 34.8682777 140.6875 35.0987476 140.98047 35.3292175 141.283202 35.4444507 141.595703 35.4444507 142.087893 35.4444507 142.479491 35.2139843 142.770508 34.7530445 143.061525 34.2921047 143.207031 33.7198448 143.207031 33.0362476 143.207031 32.3331191 143.068361 31.7589061 142.791016 31.3135914 142.51367 30.8682766 142.126956 30.6456226 141.630859 30.6456226 140.986325 30.6456226 140.439455 30.9971816 139.990234 31.7003101zM149.013672 27.6924976C149.185548 27.6924976 149.332031 27.7540204 149.453125 27.8770679 149.574219 28.0001154 149.634766 28.1475749 149.634766 28.3194507 149.634766 28.4991391 149.575196 28.6495283 149.456055 28.7706226 149.336913 28.891717 149.189454 28.9522632 149.013672 28.9522632 148.853515 28.9522632 148.711915 28.8887873 148.588867 28.7618335 148.46582 28.6348798 148.404297 28.4874203 148.404297 28.3194507 148.404297 28.1514811 148.46582 28.0049982 148.588867 27.8799976 148.711915 27.754997 148.853515 27.6924976 149.013672 27.6924976zM149.458984 36.1065601L148.544922 36.1065601 148.544922 30.792107 146.746094 30.792107 146.746094 30.0010914 149.458984 30.0010914 149.458984 36.1065601zM155.78125 34.7647632C155.988282 34.7647632 156.162109 34.835075 156.302734 34.9757007 156.44336 35.1163264 156.513672 35.2901528 156.513672 35.4971851 156.513672 35.7081237 156.442384 35.8887859 156.299805 36.0391773 156.157226 36.1895687 155.984376 36.2647632 155.78125 36.2647632 155.58203 36.2647632 155.41211 36.1895687 155.271484 36.0391773 155.130859 35.8887859 155.060547 35.7081237 155.060547 35.4971851 155.060547 35.2862466 155.129882 35.1114436 155.268555 34.972771 155.407227 34.8340985 155.578124 34.7647632 155.78125 34.7647632zM162.373047 33.8038257C161.802732 34.0811709 161.517578 34.3253091 161.517578 34.5362476 161.517578 34.6495294 161.583007 34.7452316 161.713867 34.823357 161.844727 34.9014824 162.023436 34.9405445 162.25 34.9405445L164.306641 34.8819507C164.794924 34.8819507 165.174803 35.0010902 165.446289 35.2393726 165.717775 35.477655 165.853516 35.8155423 165.853516 36.2530445 165.853516 36.9444542 165.544925 37.4952299 164.927734 37.9053882 164.310544 38.3155465 163.589848 38.5206226 162.765625 38.5206226 162.08984 38.5206226 161.537112 38.3790225 161.107422 38.0958179 160.677732 37.8126134 160.462891 37.4464061 160.462891 36.9971851 160.462891 36.5089014 160.794919 36.0967962 161.458984 35.760857 160.9082 35.5030432 160.632812 35.1866401 160.632812 34.8116382 160.632812 34.3819486 160.988278 33.981562 161.699219 33.6104664 161.371092 33.4112466 161.119142 33.1534367 160.943359 32.8370289 160.767577 32.520621 160.679688 32.18664 160.679688 31.8350757 160.679688 31.2608541 160.874998 30.7891791 161.265625 30.4200367 161.656252 30.0508942 162.144528 29.8663257 162.730469 29.8663257 163.152346 29.8663257 163.533201 29.9542155 163.873047 30.1299976L165.683594 29.854607 165.683594 30.745232 164.517578 30.745232C164.69336 31.0538273 164.78125 31.4171049 164.78125 31.8350757 164.78125 32.389766 164.587893 32.8585113 164.201172 33.2413257 163.814451 33.6241401 163.324222 33.8155445 162.730469 33.8155445 162.605468 33.8155445 162.486329 33.8116383 162.373047 33.8038257zM162.730469 33.1065601C163.066408 33.1065601 163.340819 32.9903503 163.553711 32.7579273 163.766603 32.5255043 163.873047 32.2217964 163.873047 31.8467945 163.873047 31.4522613 163.769532 31.1436706 163.5625 30.9210132 163.355468 30.6983559 163.078127 30.5870289 162.730469 30.5870289 162.406248 30.5870289 162.13379 30.7032386 161.913086 30.9356617 161.692382 31.1680847 161.582031 31.4717926 161.582031 31.8467945 161.582031 32.2139838 161.692382 32.5157386 161.913086 32.7520679 162.13379 32.9883972 162.406248 33.1065601 162.730469 33.1065601zM162.765625 37.8116382C163.367191 37.8116382 163.879881 37.6778505 164.303711 37.410271 164.727541 37.1426916 164.939453 36.8116402 164.939453 36.417107 164.939453 36.010855 164.638675 35.807732 164.037109 35.807732 163.83789 35.807732 163.494143 35.8194506 163.005859 35.8428882 162.697264 35.8585133 162.455079 35.8663257 162.279297 35.8663257 162.193359 35.8663257 162.059571 35.9366375 161.87793 36.0772632 161.696288 36.2178889 161.557618 36.3594891 161.461914 36.5020679 161.36621 36.6446468 161.318359 36.7921062 161.318359 36.9444507 161.318359 37.1827332 161.451171 37.3868327 161.716797 37.5567554 161.982423 37.7266781 162.332029 37.8116382 162.765625 37.8116382zM172.767578 33.0831226L168.578125 33.0831226C168.578125 33.7745323 168.778318 34.3448391 169.178711 34.7940601 169.579104 35.2432811 170.07031 35.4678882 170.652344 35.4678882 171.207034 35.4678882 171.779294 35.3682799 172.369141 35.1690601L172.527344 35.901482C171.988279 36.1436707 171.359379 36.2647632 170.640625 36.2647632 169.73437 36.2647632 169.003909 35.9737505 168.449219 35.3917164 167.894528 34.8096822 167.617188 34.0245338 167.617188 33.0362476 167.617188 32.0674928 167.866208 31.2950395 168.364258 30.7188648 168.862307 30.14269 169.505855 29.854607 170.294922 29.854607 170.99805 29.854607 171.585935 30.1221824 172.058594 30.6573414 172.531252 31.1925003 172.767578 31.9053838 172.767578 32.7960132L172.767578 33.0831226zM171.771484 32.338982C171.771484 31.8624171 171.623048 31.4610539 171.326172 31.1348804 171.029295 30.8087069 170.697267 30.6456226 170.330078 30.6456226 169.85742 30.6456226 169.465822 30.801871 169.155273 31.1143726 168.844725 31.4268742 168.671875 31.8350732 168.636719 32.338982L171.771484 32.338982zM179.845703 35.8311695C179.232419 36.1124209 178.628909 36.2530445 178.035156 36.2530445 176.945307 36.2530445 176.400391 35.6768784 176.400391 34.5245289L176.400391 30.792107 175.228516 30.792107 175.228516 30.0010914 176.400391 30.0010914 176.400391 28.3311695 177.291016 28.3311695 177.291016 30.0010914 179.365234 30.0010914 179.365234 30.792107 177.291016 30.792107 177.291016 34.2842945C177.291016 34.6553901 177.373046 34.9434731 177.537109 35.1485523 177.701173 35.3536314 177.923827 35.4561695 178.205078 35.4561695 178.705081 35.4561695 179.199216 35.3448425 179.6875 35.1221851L179.845703 35.8311695zM186.964844 36.1065601L186.050781 36.1065601 186.050781 35.2276539C185.86328 35.5284366 185.594728 35.776481 185.245117 35.9717945 184.895506 36.167108 184.527346 36.2647632 184.140625 36.2647632 183.441403 36.2647632 182.888674 35.9532429 182.482422 35.3301929 182.07617 34.7071429 181.873047 33.9171118 181.873047 32.9600757 181.873047 32.06554 182.084959 31.3243365 182.508789 30.7364429 182.932619 30.1485494 183.494137 29.854607 184.193359 29.854607 184.962894 29.854607 185.582029 30.1671039 186.050781 30.792107L186.050781 27.838982 186.964844 27.838982 186.964844 36.1065601zM186.050781 34.2374195L186.050781 31.7003101C185.613279 30.9971816 185.085941 30.6456226 184.46875 30.6456226 183.964841 30.6456226 183.566408 30.8692532 183.273438 31.316521 182.980467 31.7637889 182.833984 32.3292129 182.833984 33.0128101 182.833984 33.7159386 182.971678 34.2969875 183.24707 34.7559742 183.522462 35.2149608 183.900388 35.4444507 184.380859 35.4444507 184.611329 35.4444507 184.843749 35.3819514 185.078125 35.2569507 185.312501 35.1319501 185.533202 34.944452 185.740234 34.6944507 185.947267 34.4444495 186.050781 34.2921073 186.050781 34.2374195zM191.822266 29.854607C192.662114 29.854607 193.330076 30.1475728 193.826172 30.7335132 194.322268 31.3194537 194.570312 32.0909303 194.570312 33.0479664 194.570312 34.0128149 194.322268 34.7901509 193.826172 35.3799976 193.330076 35.9698443 192.662114 36.2647632 191.822266 36.2647632 190.978511 36.2647632 190.309573 35.9708209 189.81543 35.3829273 189.321287 34.7950337 189.074219 34.0167212 189.074219 33.0479664 189.074219 32.0870241 189.322263 31.3145708 189.818359 30.7305835 190.314456 30.1465962 190.982418 29.854607 191.822266 29.854607zM191.822266 35.4678882C192.376956 35.4678882 192.814452 35.2335156 193.134766 34.7647632 193.45508 34.2960109 193.615234 33.7276572 193.615234 33.0596851 193.615234 32.3565566 193.457033 31.7784374 193.140625 31.3253101 192.824217 30.8721828 192.384768 30.6456226 191.822266 30.6456226 191.255857 30.6456226 190.816408 30.8692532 190.503906 31.316521 190.191405 31.7637889 190.035156 32.3448378 190.035156 33.0596851 190.035156 33.739376 190.193358 34.3106594 190.509766 34.7735523 190.826173 35.2364452 191.263669 35.4678882 191.822266 35.4678882zM201.484375 30.1651539L201.115234 31.0440601C200.712889 30.868278 200.365236 30.7803882 200.072266 30.7803882 199.802733 30.7803882 199.539064 30.8575359 199.28125 31.0118335 199.023436 31.1661312 198.786134 31.3868321 198.569336 31.6739429 198.352538 31.9610537 198.244141 32.1221849 198.244141 32.1573414L198.244141 36.1065601 197.335938 36.1065601 197.335938 30.0010914 198.244141 30.0010914 198.244141 31.2374195C198.732424 30.3155399 199.36523 29.854607 200.142578 29.854607 200.603518 29.854607 201.050779 29.9581216 201.484375 30.1651539zM206.189453 34.7647632C206.396485 34.7647632 206.570312 34.835075 206.710938 34.9757007 206.851563 35.1163264 206.921875 35.2901528 206.921875 35.4971851 206.921875 35.7081237 206.850587 35.8887859 206.708008 36.0391773 206.565429 36.1895687 206.392579 36.2647632 206.189453 36.2647632 205.990233 36.2647632 205.820313 36.1895687 205.679688 36.0391773 205.539062 35.8887859 205.46875 35.7081237 205.46875 35.4971851 205.46875 35.2862466 205.538085 35.1114436 205.676758 34.972771 205.81543 34.8340985 205.986327 34.7647632 206.189453 34.7647632zM215.769531 35.901482C215.238279 36.1436707 214.6543 36.2647632 214.017578 36.2647632 213.056636 36.2647632 212.290042 35.972774 211.717773 35.3887867 211.145505 34.8047994 210.859375 34.02844 210.859375 33.0596851 210.859375 32.0909303 211.147458 31.3145708 211.723633 30.7305835 212.299808 30.1465962 213.056636 29.854607 213.994141 29.854607 214.607425 29.854607 215.191403 29.9620278 215.746094 30.1768726L215.505859 30.932732C214.951169 30.7413248 214.451174 30.6456226 214.005859 30.6456226 213.333981 30.6456226 212.80176 30.8624173 212.40918 31.2960132 212.0166 31.7296091 211.820312 32.3174939 211.820312 33.0596851 211.820312 33.739376 212.023435 34.3106594 212.429688 34.7735523 212.83594 35.2364452 213.365231 35.4678882 214.017578 35.4678882 214.533206 35.4678882 215.06445 35.3682799 215.611328 35.1690601L215.769531 35.901482zM220.626953 29.854607C221.466801 29.854607 222.134763 30.1475728 222.630859 30.7335132 223.126956 31.3194537 223.375 32.0909303 223.375 33.0479664 223.375 34.0128149 223.126956 34.7901509 222.630859 35.3799976 222.134763 35.9698443 221.466801 36.2647632 220.626953 36.2647632 219.783199 36.2647632 219.11426 35.9708209 218.620117 35.3829273 218.125974 34.7950337 217.878906 34.0167212 217.878906 33.0479664 217.878906 32.0870241 218.126951 31.3145708 218.623047 30.7305835 219.119143 30.1465962 219.787105 29.854607 220.626953 29.854607zM220.626953 35.4678882C221.181643 35.4678882 221.619139 35.2335156 221.939453 34.7647632 222.259767 34.2960109 222.419922 33.7276572 222.419922 33.0596851 222.419922 32.3565566 222.26172 31.7784374 221.945312 31.3253101 221.628905 30.8721828 221.189456 30.6456226 220.626953 30.6456226 220.060544 30.6456226 219.621095 30.8692532 219.308594 31.316521 218.996092 31.7637889 218.839844 32.3448378 218.839844 33.0596851 218.839844 33.739376 218.998045 34.3106594 219.314453 34.7735523 219.630861 35.2364452 220.068357 35.4678882 220.626953 35.4678882zM230.675781 36.1065601L229.761719 36.1065601 229.761719 32.0987476C229.761719 31.1299928 229.582033 30.6456226 229.222656 30.6456226 229.039062 30.6456226 228.836915 30.8126131 228.616211 31.1465992 228.395507 31.4805852 228.285156 31.6651537 228.285156 31.7003101L228.285156 36.1065601 227.376953 36.1065601 227.376953 32.0987476C227.376953 31.1299928 227.195314 30.6456226 226.832031 30.6456226 226.652343 30.6456226 226.45215 30.8126131 226.231445 31.1465992 226.010741 31.4805852 225.900391 31.6651537 225.900391 31.7003101L225.900391 36.1065601 224.986328 36.1065601 224.986328 30.0010914 225.865234 30.0010914 225.865234 30.9210132C226.03711 30.5967929 226.24121 30.3380064 226.477539 30.144646 226.713868 29.9512857 226.949218 29.854607 227.183594 29.854607 227.429689 29.854607 227.65039 29.9512857 227.845703 30.144646 228.041017 30.3380064 228.175781 30.5967929 228.25 30.9210132 228.421876 30.5967929 228.626952 30.3380064 228.865234 30.144646 229.103517 29.9512857 229.337889 29.854607 229.568359 29.854607 230.306644 29.854607 230.675781 30.5147566 230.675781 31.8350757L230.675781 36.1065601zM237.144531 27.6807789L233.552734 36.2647632 232.691406 36.2647632 236.265625 27.6807789 237.144531 27.6807789zM244.152344 36.1065601L241.65625 36.1065601 241.65625 28.6299976 240.0625 28.6299976 240.0625 27.838982 242.570312 27.838982 242.570312 35.3155445 244.152344 35.3155445 244.152344 36.1065601zM249.431641 29.854607C250.271489 29.854607 250.939451 30.1475728 251.435547 30.7335132 251.931643 31.3194537 252.179688 32.0909303 252.179688 33.0479664 252.179688 34.0128149 251.931643 34.7901509 251.435547 35.3799976 250.939451 35.9698443 250.271489 36.2647632 249.431641 36.2647632 248.587886 36.2647632 247.918948 35.9708209 247.424805 35.3829273 246.930662 34.7950337 246.683594 34.0167212 246.683594 33.0479664 246.683594 32.0870241 246.931638 31.3145708 247.427734 30.7305835 247.923831 30.1465962 248.591793 29.854607 249.431641 29.854607zM249.431641 35.4678882C249.986331 35.4678882 250.423827 35.2335156 250.744141 34.7647632 251.064455 34.2960109 251.224609 33.7276572 251.224609 33.0596851 251.224609 32.3565566 251.066408 31.7784374 250.75 31.3253101 250.433592 30.8721828 249.994143 30.6456226 249.431641 30.6456226 248.865232 30.6456226 248.425783 30.8692532 248.113281 31.316521 247.80078 31.7637889 247.644531 32.3448378 247.644531 33.0596851 247.644531 33.739376 247.802733 34.3106594 248.119141 34.7735523 248.435548 35.2364452 248.873044 35.4678882 249.431641 35.4678882zM258.976562 35.901482C258.44531 36.1436707 257.861331 36.2647632 257.224609 36.2647632 256.263667 36.2647632 255.497073 35.972774 254.924805 35.3887867 254.352536 34.8047994 254.066406 34.02844 254.066406 33.0596851 254.066406 32.0909303 254.354489 31.3145708 254.930664 30.7305835 255.506839 30.1465962 256.263667 29.854607 257.201172 29.854607 257.814456 29.854607 258.398435 29.9620278 258.953125 30.1768726L258.712891 30.932732C258.1582 30.7413248 257.658205 30.6456226 257.212891 30.6456226 256.541012 30.6456226 256.008791 30.8624173 255.616211 31.2960132 255.223631 31.7296091 255.027344 32.3174939 255.027344 33.0596851 255.027344 33.739376 255.230467 34.3106594 255.636719 34.7735523 256.042971 35.2364452 256.572262 35.4678882 257.224609 35.4678882 257.740237 35.4678882 258.271482 35.3682799 258.818359 35.1690601L258.976562 35.901482z"/>
    <g transform="translate(274 137.456)">
      <path fill="#FFF" stroke="#E5E5E5" stroke-width="3" d="M4.00681841,0.00138794322 L38.9144656,0.0608917015 C39.9873306,0.0627205127 41.0144888,0.495460107 41.765221,1.26190893 L51.3167394,11.0133893 C51.3533159,11.0507315 51.389157,11.0887872 51.4242418,11.1275342 L61.9650762,22.7686267 C62.6311398,23.5042143 63,24.4611232 63,25.4534587 L63,82.2863803 C63,84.4955193 61.209139,86.2863803 59,86.2863803 L4,86.2863803 C1.790861,86.2863803 -5.17698732e-11,84.4955193 -5.17701437e-11,82.2863803 L-1.23927535e-11,4.00138213 C-1.1335447e-11,1.79224313 1.790861,0.00138213187 4,0.00138213187 C4.0022728,0.00138213187 4.00454561,0.00138406899 4.00681841,0.00138794322 Z"/>
      <path stroke="#E5E5E5" stroke-width="3" d="M40,1.00333 L40,20.0799201 C40,22.2890591 41.790861,24.0799201 44,24.0799201 L62,24.0799201"/>
      <rect width="48" height="17.063" x="7" y="41.133" fill="#DED4FF" stroke="#DED4FF" stroke-width="2" rx="4"/>
      <path fill="#623BCC" d="M19.0654297,48.8090783 L21.1572266,45.2133752 L23.1533203,45.2133752 L20.1455078,50.148922 L23.2216797,55.1665002 L21.2050781,55.1665002 L19.0654297,51.5161095 L16.9189453,55.1665002 L14.9091797,55.1665002 L17.9921875,50.148922 L14.9775391,45.2133752 L16.9736328,45.2133752 L19.0654297,48.8090783 Z M26.2294922,53.7856408 L30.7480469,53.7856408 L30.7480469,55.1665002 L24.5,55.1665002 L24.5,45.2133752 L26.2294922,45.2133752 L26.2294922,53.7856408 Z M37.2763672,52.6030236 C37.2763672,52.1655214 37.1225601,51.8282852 36.8149414,51.5913049 C36.5073227,51.3543245 35.952478,51.1150691 35.1503906,50.8735314 C34.3483033,50.6319938 33.7102888,50.3631162 33.2363281,50.0668908 C32.3294225,49.4972265 31.8759766,48.7543954 31.8759766,47.8383752 C31.8759766,47.0362878 32.202959,46.3754871 32.8569336,45.8559533 C33.5109082,45.3364194 34.3596953,45.0766564 35.4033203,45.0766564 C36.0960321,45.0766564 36.713539,45.2042593 37.2558594,45.4594689 C37.7981798,45.7146785 38.2242823,46.0781189 38.5341797,46.5498009 C38.8440771,47.021483 38.9990234,47.544427 38.9990234,48.1186486 L37.2763672,48.1186486 C37.2763672,47.5991148 37.1134456,47.1923805 36.7875977,46.8984338 C36.4617497,46.604487 35.9957713,46.4575158 35.3896484,46.4575158 C34.8245414,46.4575158 34.3859065,46.5782828 34.0737305,46.8198205 C33.7615544,47.0613581 33.6054688,47.3985944 33.6054688,47.8315392 C33.6054688,48.1961244 33.7740869,48.5003206 34.1113281,48.7441369 C34.4485694,48.9879532 35.0045534,49.22493 35.7792969,49.4550744 C36.5540403,49.6852188 37.1761044,49.9472604 37.6455078,50.2412072 C38.1149112,50.535154 38.4589833,50.8723902 38.6777344,51.2529259 C38.8964855,51.6334617 39.0058594,52.0789325 39.0058594,52.5893517 C39.0058594,53.418783 38.6879915,54.0784443 38.0522461,54.5683556 C37.4165007,55.0582669 36.5540419,55.3032189 35.4648438,55.3032189 C34.7447881,55.3032189 34.0828481,55.1699195 33.4790039,54.9033166 C32.8751597,54.6367137 32.4057634,54.2687161 32.0708008,53.7993127 C31.7358382,53.3299093 31.5683594,52.7830397 31.5683594,52.1586877 L33.2978516,52.1586877 C33.2978516,52.7237947 33.4846987,53.1612903 33.8583984,53.4711877 C34.2320982,53.781085 34.7675746,53.9360314 35.4648438,53.9360314 C36.0664093,53.9360314 36.5187159,53.8141251 36.8217773,53.5703088 C37.1248388,53.3264924 37.2763672,53.0040673 37.2763672,52.6030236 Z M43.9482422,48.8090783 L46.0400391,45.2133752 L48.0361328,45.2133752 L45.0283203,50.148922 L48.1044922,55.1665002 L46.0878906,55.1665002 L43.9482422,51.5161095 L41.8017578,55.1665002 L39.7919922,55.1665002 L42.875,50.148922 L39.8603516,45.2133752 L41.8564453,45.2133752 L43.9482422,48.8090783 Z"/>
    </g>
    <g transform="translate(274 34.113)">
      <path fill="#FFF" stroke="#E5E5E5" stroke-width="3" d="M4.00681841,0.00138794322 L38.9144656,0.0608917015 C39.9873306,0.0627205127 41.0144888,0.495460107 41.765221,1.26190893 L51.3167394,11.0133893 C51.3533159,11.0507315 51.389157,11.0887872 51.4242418,11.1275342 L61.9650762,22.7686267 C62.6311398,23.5042143 63,24.4611232 63,25.4534587 L63,82.2863803 C63,84.4955193 61.209139,86.2863803 59,86.2863803 L4,86.2863803 C1.790861,86.2863803 -5.17698732e-11,84.4955193 -5.17701437e-11,82.2863803 L-1.23927535e-11,4.00138213 C-1.1335447e-11,1.79224313 1.790861,0.00138213187 4,0.00138213187 C4.0022728,0.00138213187 4.00454561,0.00138406899 4.00681841,0.00138794322 Z"/>
      <path stroke="#E5E5E5" stroke-width="3" d="M40,1.00333 L40,20.0799201 C40,22.2890591 41.790861,24.0799201 44,24.0799201 L62,24.0799201"/>
      <rect width="48" height="17.063" x="7" y="41.133" fill="#DED4FF" stroke="#DED4FF" stroke-width="2" rx="4"/>
      <path fill="#623BCC" d="M26.7832031,51.9262658 C26.6829422,52.9881201 26.291019,53.8163995 25.6074219,54.4111291 C24.9238247,55.0058586 24.0146541,55.3032189 22.8798828,55.3032189 C22.0869101,55.3032189 21.3885121,55.1152325 20.784668,54.7392541 C20.1808238,54.3632756 19.7148454,53.8289385 19.3867188,53.1362267 C19.0585921,52.4435149 18.8876954,51.639161 18.8740234,50.7231408 L18.8740234,49.7934533 C18.8740234,48.8546465 19.0403629,48.0275063 19.3730469,47.312008 C19.7057308,46.5965096 20.1831024,46.0450828 20.8051758,45.6577111 C21.4272492,45.2703394 22.1461548,45.0766564 22.9619141,45.0766564 C24.0602268,45.0766564 24.9443326,45.375156 25.6142578,45.9721642 C26.284183,46.5691724 26.6738276,47.4122629 26.7832031,48.5014611 L25.0605469,48.5014611 C24.9785152,47.7859627 24.7700212,47.2698546 24.4350586,46.9531213 C24.100096,46.6363879 23.6090527,46.4780236 22.9619141,46.4780236 C22.2099572,46.4780236 21.6323262,46.7525977 21.2290039,47.3017541 C20.8256816,47.8509105 20.6194662,48.6564037 20.6103516,49.718258 L20.6103516,50.6000939 C20.6103516,51.6756201 20.8028952,52.4959244 21.1879883,53.0610314 C21.5730814,53.6261384 22.1370406,53.9086877 22.8798828,53.9086877 C23.5589227,53.9086877 24.0693342,53.7560199 24.4111328,53.4506799 C24.7529314,53.1453398 24.9694006,52.6372068 25.0605469,51.9262658 L26.7832031,51.9262658 Z M33.5302734,52.6030236 C33.5302734,52.1655214 33.3764664,51.8282852 33.0688477,51.5913049 C32.7612289,51.3543245 32.2063842,51.1150691 31.4042969,50.8735314 C30.6022095,50.6319938 29.9641951,50.3631162 29.4902344,50.0668908 C28.5833288,49.4972265 28.1298828,48.7543954 28.1298828,47.8383752 C28.1298828,47.0362878 28.4568652,46.3754871 29.1108398,45.8559533 C29.7648145,45.3364194 30.6136016,45.0766564 31.6572266,45.0766564 C32.3499384,45.0766564 32.9674452,45.2042593 33.5097656,45.4594689 C34.052086,45.7146785 34.4781886,46.0781189 34.7880859,46.5498009 C35.0979833,47.021483 35.2529297,47.544427 35.2529297,48.1186486 L33.5302734,48.1186486 C33.5302734,47.5991148 33.3673519,47.1923805 33.0415039,46.8984338 C32.7156559,46.604487 32.2496775,46.4575158 31.6435547,46.4575158 C31.0784477,46.4575158 30.6398128,46.5782828 30.3276367,46.8198205 C30.0154607,47.0613581 29.859375,47.3985944 29.859375,47.8315392 C29.859375,48.1961244 30.0279931,48.5003206 30.3652344,48.7441369 C30.7024756,48.9879532 31.2584597,49.22493 32.0332031,49.4550744 C32.8079466,49.6852188 33.4300107,49.9472604 33.8994141,50.2412072 C34.3688175,50.535154 34.7128895,50.8723902 34.9316406,51.2529259 C35.1503917,51.6334617 35.2597656,52.0789325 35.2597656,52.5893517 C35.2597656,53.418783 34.9418977,54.0784443 34.3061523,54.5683556 C33.670407,55.0582669 32.8079482,55.3032189 31.71875,55.3032189 C30.9986943,55.3032189 30.3367543,55.1699195 29.7329102,54.9033166 C29.129066,54.6367137 28.6596696,54.2687161 28.324707,53.7993127 C27.9897444,53.3299093 27.8222656,52.7830397 27.8222656,52.1586877 L29.5517578,52.1586877 C29.5517578,52.7237947 29.7386049,53.1612903 30.1123047,53.4711877 C30.4860045,53.781085 31.0214809,53.9360314 31.71875,53.9360314 C32.3203155,53.9360314 32.7726222,53.8141251 33.0756836,53.5703088 C33.378745,53.3264924 33.5302734,53.0040673 33.5302734,52.6030236 Z M40.2841797,52.999508 L42.8134766,45.2133752 L44.7138672,45.2133752 L41.1318359,55.1665002 L39.4570312,55.1665002 L35.8886719,45.2133752 L37.7822266,45.2133752 L40.2841797,52.999508 Z"/>
    </g>
  </g>
</svg>
