<svg xmlns="http://www.w3.org/2000/svg" width="76" height="56" viewBox="0 0 76 56">
    <g fill="none" fill-rule="evenodd">
        <path fill="#DF1E25" d="M0 0h76v56H0z"/>
        <path fill="#FFF" fill-rule="nonzero" d="M54.114 29.88v9.79H51.92V24.078h1.629l.5 3.195c1.164-1.747 2.992-3.461 5.588-3.526L60 25.793c-2.593.162-4.82 2.009-5.886 4.086zm-13.47 10.118c-4.025 0-7.05-2.965-7.05-8.108 0-5.175 3.094-8.143 7.05-8.143 4.09 0 7.151 2.968 7.151 8.143 0 5.143-3.126 8.108-7.15 8.108zm0-14.404c-3.126 0-4.823 2.605-4.823 6.296 0 3.594 1.73 6.264 4.823 6.264 3.195 0 4.889-2.573 4.889-6.264 0-3.593-1.73-6.296-4.889-6.296zm4.33-5.312l-1.304 1.344-2.855-2.715-2.851 2.735-1.311-1.342 4.156-3.983 4.165 3.96zM27.807 39.669l-.399-2.274C26.211 38.81 24.648 40 22.353 40 18.893 40 16 37.56 16 32.32c0-5.704 3.358-8.474 7.184-8.474 1.595 0 2.992.298 4.09.793V16.4L29.468 16v23.67h-1.66zm-.533-13.02c-1.23-.626-2.393-.924-4.025-.924-2.825 0-5.022 2.11-5.022 6.494 0 3.792 1.83 5.833 4.326 5.833 1.86 0 3.325-1.118 4.721-2.8V26.65z"/>
    </g>
</svg>
