<?xml version="1.0" encoding="UTF-8"?>
<svg width="299px" height="43px" viewBox="0 0 299 43" version="1.1" xmlns="http://www.w3.org/2000/svg" xmlns:xlink="http://www.w3.org/1999/xlink">
    <!-- Generator: Sketch 46.2 (44496) - http://www.bohemiancoding.com/sketch -->
    <title>Group 2</title>
    <desc>Created with Sketch.</desc>
    <defs></defs>
    <g id="final" stroke="none" stroke-width="1" fill="none" fill-rule="evenodd">
        <g id="square-dor---hero-cta" transform="translate(-60.000000, -261.000000)">
            <g id="Group-2" transform="translate(60.000000, 261.000000)">
                <polygon id="+" fill="#E10000" points="206.263434 22.5734335 202.843434 22.5734335 202.843434 26.1134335 200.403434 26.1134335 200.403434 22.5734335 196.983434 22.5734335 196.983434 20.2134335 200.403434 20.2134335 200.403434 16.6734335 202.843434 16.6734335 202.843434 20.2134335 206.263434 20.2134335"></polygon>
                <g id="Group-5" transform="translate(232.000000, 1.000000)" fill="#3C3C3C">
                    <path d="M17.1674866,16.4166892 C15.2953941,15.452471 13.522881,14.9928436 11.0383752,14.9928436 C6.73654564,14.9928436 3.39067818,18.2452066 3.39067818,25.0047259 C3.39067818,30.8499865 6.17890106,33.9974345 9.97785473,33.9974345 C12.8108883,33.9974345 15.0414666,32.273832 17.1674866,29.6809344 L17.1674866,16.4166892 Z M17.9790586,36.4904132 L17.3716243,32.9832568 C15.5493215,35.1664866 13.1693741,37 9.6741376,37 C4.40638794,37 0,33.2380502 0,25.1596003 C0,16.3667297 5.1134016,12.0951931 10.9387958,12.0951931 C13.3685329,12.0951931 15.4945529,12.5548204 17.1674866,13.3192006 L17.1674866,0.614501755 L20.5083751,-3.55271368e-15 L20.5083751,36.4904132 L17.9790586,36.4904132 Z M37.5264926,14.7905077 C32.7665978,14.7905077 30.1825127,18.8072509 30.1825127,24.4976371 C30.1825127,30.0381447 32.8163875,34.1548069 37.5264926,34.1548069 C42.3909457,34.1548069 44.9700519,30.1880232 44.9700519,24.4976371 C44.9700519,18.9571294 42.336177,14.7905077 37.5264926,14.7905077 M37.5264926,36.997502 C31.3973812,36.997502 26.7918345,32.4262085 26.7918345,24.4976371 C26.7918345,16.5191061 31.5019396,11.9428166 37.5264926,11.9428166 C43.7551833,11.9428166 48.4154987,16.5191061 48.4154987,24.4976371 C48.4154987,32.4262085 43.6556039,36.997502 37.5264926,36.997502 Z M58.037855,21.397151 L58.037855,36.4899136 L54.6969665,36.4899136 L54.6969665,12.4544018 L57.1764933,12.4544018 L57.9382756,17.3804078 C59.7107888,14.6875911 62.4940327,12.044734 66.4473344,11.944815 L67,15.097259 C63.0516772,15.3470564 59.6609991,18.1947475 58.037855,21.397151 Z M44.1201418,6.60064812 L42.133533,8.67396705 L37.7868927,4.4873616 L33.4452313,8.70394275 L31.4486646,6.63561977 L37.7769347,0.495598164 L44.1201418,6.60064812 Z" id="Combined-Shape"></path>
                </g>
                <g id="square" fill-rule="nonzero" fill="#3C3C3C">
                    <g id="layer3" transform="translate(0.787330, 0.000000)">
                        <g id="g3486">
                            <g id="g3478" transform="translate(55.113122, 7.071429)">
                                <path d="M30.7814582,7.90625 C29.0820136,7.95498 27.4614437,8.64206593 26.1312885,9.67410714 C25.6555914,10.0131334 25.0763446,10.5733909 24.7630974,11.0808657 C24.0817732,12.0130937 23.503794,13.0090494 23.1776267,14.1218181 C22.2341011,17.2307371 22.4017284,20.7508769 23.9110879,23.6533181 C24.4988142,24.6856272 25.128332,25.5811286 26.0574763,26.3459821 C26.8110852,26.8143551 27.6867698,27.4310654 28.620701,27.6733396 C31.1745171,28.4822811 34.1336587,28.0665762 36.2681663,26.4196429 C36.8022204,26.0885963 37.2889952,25.4515816 37.7198066,24.921875 C37.6886283,24.7827423 38.1286043,24.2122697 38.1626799,24.6566964 C38.1611052,27.8171363 38.1642546,31.0063325 38.1626799,34.1785714 C39.1222387,34.1785714 40.0817976,34.1785714 41.0413564,34.1785714 C41.0413564,25.5684526 41.0413564,16.9583331 41.0413564,8.34821429 C40.0817976,8.34821429 39.1222387,8.34821429 38.1626799,8.34821429 C38.1626799,9.49404736 38.1626799,10.6398812 38.1626799,11.7857143 C37.6471596,11.0320084 37.1916969,10.2056986 36.4649989,9.72321429 C34.8760797,8.45108393 32.8258165,7.74644907 30.7814582,7.90625 Z M31.7902252,10.5089286 C33.1118142,10.50555 34.6112218,10.8777664 35.5546482,11.7120536 C36.3067928,12.3202373 36.8696552,12.9627591 37.2759885,13.8562419 C38.3523399,16.1652684 38.4479927,18.9109824 37.6074861,21.3091458 C37.2301816,22.4689465 36.5048929,23.4488029 35.5546482,24.2098214 C34.15583,25.4038644 32.1297771,25.6035057 30.3606223,25.2956754 C29.1894054,25.0950904 28.1954088,24.426369 27.4431304,23.5369192 C26.0423595,22.0020091 25.6427815,19.7811594 25.6684328,17.7474574 C25.7389776,15.9823502 26.0787421,14.1306228 27.1646595,12.6941964 C27.8958138,11.791989 28.8520423,11.0121251 30.0235347,10.7358397 C30.592554,10.5523605 31.1942397,10.4920868 31.7902252,10.5089286 L31.7902252,10.5089286 Z" id="path3299"></path>
                                <path d="M9.63513977,0.515625 C7.44499154,0.603130393 5.21500675,1.17623471 3.4595176,2.52901786 C3.09922108,2.76774693 2.70090043,3.1986625 2.45162142,3.57318107 C1.38063567,4.9233635 0.832850606,6.67816836 1.00373357,8.40209621 C1.0650351,9.65630207 1.52888052,10.8756167 2.37693842,11.8102679 C2.62524114,12.1835961 3.10452847,12.6075424 3.49435146,12.8523175 C5.76104158,14.6103359 8.70870315,14.9368654 11.3838004,15.7362857 C13.0542461,16.243832 14.9880978,16.5883143 16.0814067,18.0714286 C17.0073505,19.1997842 16.9813332,20.8956786 16.4750719,22.2209821 C16.041945,23.3065981 15.0966982,24.0826339 14.0884769,24.6272321 C11.9771121,25.5387589 9.53156017,25.4795294 7.34728778,24.8691159 C5.70175246,24.3665039 4.24211291,23.3907559 3.1738592,22.0375367 C2.90056898,21.5929764 2.65752483,21.3065906 2.22999424,21.8202836 C1.58186077,22.2730459 0.933726516,22.7258091 0.285592262,23.1785714 C0.806137276,23.994421 1.42084778,24.7775652 2.15550176,25.3392857 C3.41221007,26.2984401 4.77511664,27.1467531 6.32087674,27.5447244 C9.213126,28.4046856 12.4235772,28.3151369 15.2202642,27.15625 C16.3491006,26.5679001 17.4272377,25.9734726 18.2257142,24.9865047 C19.258542,23.7682571 19.9221513,22.0595729 19.9540688,20.3945021 C20.0386242,18.7959436 19.5218025,17.1745726 18.4680018,15.9598214 C18.2670514,15.6438708 17.9043567,15.3208126 17.5562638,15.1189036 C17.0296941,14.6523009 16.4340898,14.3596852 15.7887309,14.0111871 C12.9106591,12.5744363 9.62877263,12.2643447 6.68895052,11.0086821 C5.78851469,10.5621536 4.88706084,9.94355371 4.41907643,9.03571429 C3.71912009,7.48561629 4.26448569,5.5236775 5.63525533,4.54046921 C6.83262649,3.58292079 8.47646275,3.30121943 9.99435923,3.29017857 C12.6300719,3.26329929 15.3025072,4.41033686 16.8933411,6.53125 C17.6806714,5.94196429 18.4680018,5.35267857 19.2553321,4.76339286 C18.5647355,3.80377879 17.701353,3.06047814 16.7564181,2.42487614 C14.6704801,1.05575879 12.1301982,0.387365707 9.63513977,0.515625 Z" id="path3297"></path>
                                <path d="M45.8997828,20.8705357 C45.9029321,22.5577676 46.2460822,24.3107731 47.2776109,25.6830357 C47.7286881,26.4147989 48.6184659,26.9964255 49.4091817,27.42718 C51.4753176,28.3813153 53.9557781,28.2354828 56.0016795,27.3001913 C56.933548,26.7968281 57.8285142,26.1706366 58.4232557,25.3638393 C58.6959081,25.1128146 59.0032268,24.4000908 59.1613778,24.3620536 C59.1613778,25.4489581 59.1613778,26.5358634 59.1613778,27.6227679 C60.1209367,27.6227679 61.0804955,27.6227679 62.0400543,27.6227679 C62.0400543,21.1979169 62.0400543,14.7730652 62.0400543,8.34821429 C61.0804955,8.34821429 60.1209367,8.34821429 59.1613778,8.34821429 C59.1413796,12.2847238 59.207909,16.2234804 59.1121697,20.1584821 C58.8795766,21.7429143 58.1581143,23.2730049 56.848595,24.234375 C55.2614001,25.4412879 52.961309,25.7345754 51.0912421,24.9955357 C49.7814709,24.4081027 49.0351998,22.9736949 48.9417437,21.5647347 C48.716394,19.1000527 48.8755292,16.6193791 48.8276674,14.1477679 C48.8276674,12.2145831 48.8276674,10.2813991 48.8276674,8.34821429 C47.8517085,8.34821429 46.8757417,8.34821429 45.8997828,8.34821429 C45.8997828,12.5223214 45.8997828,16.6964286 45.8997828,20.8705357 Z" id="path3301"></path>
                                <path d="M73.8614253,7.90625 C71.3627932,7.98721314 68.8871511,8.79797836 66.8492647,10.2388393 C67.2675339,10.9427081 67.6858032,11.6465776 68.1040724,12.3504464 C69.8005173,11.0511846 71.983241,10.5198649 74.0927036,10.4352679 C75.6291551,10.41425 77.4384638,10.7075014 78.3219665,12.0677849 C78.8264642,12.9907949 78.7113329,14.3155626 77.8472851,14.9776786 C77.1235317,15.6712003 75.8944224,15.9564154 74.8455882,16.15625 C72.8554376,16.5211616 70.7690123,16.5995233 68.901575,17.440236 C68.0618243,17.8324732 67.2828239,18.4092763 66.8000566,19.1517857 C65.7680712,20.4285141 65.6957156,22.2009276 66.0017115,23.7484335 C66.1768059,24.6217604 66.625285,25.3836267 67.1691176,26.0758929 C67.4545957,26.4995469 68.0207807,26.7829564 68.4977376,27.1316964 C70.29737,28.1574291 72.5060441,28.2408194 74.5062725,27.8547445 C75.6850319,27.5867916 76.7727918,26.9833504 77.6205182,26.2170284 C78.0650291,25.9300116 78.1512261,25.4494012 78.5361991,25.1674107 C78.9051972,25.2674981 78.6180578,25.8587419 78.7084276,26.1495536 C78.7084276,26.640625 78.7084276,27.1316964 78.7084276,27.6227679 C79.6351784,27.6227679 80.561937,27.6227679 81.4886878,27.6227679 C81.4680597,22.6222771 81.5363213,17.6195486 81.4394796,12.6205357 C81.2145472,11.2488742 80.4836685,9.83085086 79.2832575,9.16307621 C77.7117068,8.135336 75.718769,7.80126364 73.8614253,7.90625 L73.8614253,7.90625 Z M78.6100113,16.9910714 C78.5299556,19.0030634 78.9366038,21.1764229 77.9290414,23.0245054 C77.0999275,24.5249911 75.4542418,25.4110104 73.7583638,25.5422396 C72.2549487,25.6671054 70.501509,25.4786518 69.4819005,24.2589286 C68.7567929,23.3743337 68.6176952,22.0308401 68.9698523,20.9449051 C69.2401664,20.0028384 70.0851451,19.4200309 70.98293,19.1249347 C73.1026751,18.3985041 75.4115764,18.3936264 77.5028281,17.5803571 C77.9171606,17.3508445 78.2980238,17.1339591 78.6100113,16.8191964 C78.6100113,16.8764907 78.6100113,16.9337795 78.6100113,16.9910714 L78.6100113,16.9910714 Z" id="path3303"></path>
                                <path d="M94.761707,7.97991071 C93.2254287,8.09946029 91.7227064,8.79924571 90.6573383,9.80214007 C90.190538,10.3156044 89.7538374,10.9590069 89.348811,11.5892857 C89.348811,10.5089286 89.348811,9.42857143 89.348811,8.34821429 C88.3892522,8.34821429 87.4296934,8.34821429 86.4701346,8.34821429 C86.4701346,14.7730652 86.4701346,21.1979169 86.4701346,27.6227679 C87.4296934,27.6227679 88.3892522,27.6227679 89.348811,27.6227679 C89.3754228,23.8652001 89.2885803,20.1032967 89.4091205,16.3485575 C89.6324074,14.5303156 90.3941416,12.6793755 91.9444186,11.6139108 C93.3271124,10.5755069 95.3079725,10.4959266 96.9022298,11.1227679 C97.2441516,10.9486536 97.1064948,10.3593867 97.2882027,10.0260584 C97.4137898,9.54862229 97.539369,9.07118614 97.664956,8.59375 C96.7948379,8.09173514 95.7552627,7.920781 94.7616755,7.97991071 L94.761707,7.97991071 Z" id="path3305"></path>
                                <path d="M107.345804,7.90625 C105.662264,7.93504643 104.039914,8.53343621 102.646426,9.453125 C102.366302,9.66583357 102.032348,9.91086014 101.729612,10.1716301 C101.009275,10.8676315 100.465388,11.7243146 99.9399785,12.6205357 C98.5163986,15.4235628 98.3554053,18.7887857 99.2516549,21.7807755 C99.642777,23.1520363 100.472954,24.4243576 101.361039,25.4444088 C101.723754,25.8158065 102.120907,26.1232856 102.474198,26.3705357 C103.941419,27.4272484 105.724266,27.9968032 107.532504,28.0519494 C109.938459,28.1856418 112.457342,27.6187709 114.335077,26.0538638 C114.925221,25.6553141 115.41098,25.1818781 115.883417,24.6026786 C115.235508,24.0133929 114.587606,23.4241071 113.939696,22.8348214 C112.940857,24.114541 111.48613,25.0012879 109.876851,25.2820881 C107.648241,25.7128638 105.06135,25.2400131 103.519245,23.4848656 C102.223347,22.2412481 101.801582,20.3374411 101.76068,18.5870536 C102.033781,18.1438604 102.71853,18.51575 103.168033,18.390625 C107.660736,18.390625 112.15344,18.390625 116.646144,18.390625 C116.970925,15.7798614 116.371743,13.0087579 114.712264,10.93125 C114.313969,10.3162243 113.670153,9.87069443 113.053949,9.42857143 C111.427703,8.27338836 109.326775,7.78498286 107.345804,7.90625 Z M108.379175,10.3616071 C110.300403,10.4765108 112.15888,11.5517828 113.050115,13.2575834 C113.4731,14.1667154 113.722007,15.1739249 113.742863,16.1808036 C109.757003,16.1808036 105.771144,16.1808036 101.785284,16.1808036 C101.972228,14.7688043 102.30952,13.2495503 103.359945,12.2276786 C103.54799,11.904563 104.07125,11.5877009 104.376711,11.2811364 C105.547817,10.5195664 106.996733,10.2644921 108.379175,10.3616071 Z" id="path3307"></path>
                            </g>
                            <path d="M34.9050771,0.707939721 L6.98174976,0.707939721 C3.14283028,0.707939721 -4.45628959e-06,3.8430964 -4.45628959e-06,7.67536361 L-4.45628959e-06,35.5413771 C-4.45628959e-06,39.3718034 3.14283028,42.5063461 6.98174976,42.5063461 L34.9050771,42.5063461 C38.7439966,42.5063461 41.8868318,39.3718034 41.8868318,35.5413771 L41.8868318,7.67536361 C41.8868318,3.8430964 38.7439966,0.707939721 34.9050771,0.707939721 L34.9050771,0.707939721 Z M34.2704841,32.6934104 C34.2704841,33.9108998 33.2712462,34.9050185 32.0500229,34.9050185 L9.83495948,34.9050185 C8.61435106,34.9050185 7.61511315,33.9108998 7.61511315,32.6934104 L7.61511315,10.524558 C7.61511315,9.30645493 8.61435106,8.309268 9.83495948,8.309268 L32.0500229,8.309268 C33.2712462,8.309268 34.2704841,9.30645493 34.2704841,10.524558 L34.2704841,32.6934104 Z M26.6565961,26.0401774 C26.6565961,26.7391292 26.0853399,27.3073719 25.38864,27.3073719 L16.5043362,27.3073719 C15.8057915,27.3073719 15.2363801,26.7391292 15.2363801,26.0401774 L15.2363801,17.1747227 C15.2363801,16.4782255 15.8057915,15.9087547 16.5043362,15.9087547 L25.38864,15.9087547 C26.0853399,15.9087547 26.6565961,16.4782255 26.6565961,17.1747227 L26.6565961,26.0401774 Z" id="path3010"></path>
                        </g>
                    </g>
                </g>
            </g>
        </g>
    </g>
</svg>